<?xml version="1.0" encoding="UTF-8"?>
<svg width="250px" height="217px" viewBox="0 0 250 217" version="1.1" xmlns="http://www.w3.org/2000/svg" xmlns:xlink="http://www.w3.org/1999/xlink">
    <!-- Generator: Sketch 46.2 (44496) - http://www.bohemiancoding.com/sketch -->
    <title>research-3</title>
    <desc>Created with Sketch.</desc>
    <defs>
        <path d="M33.4362,35.2845231 C37.4329846,31.7991692 39.9626769,26.6722615 39.9626769,20.9651077 C39.9626769,10.4899846 31.4405538,1.96786154 20.9651077,1.96786154 C10.4899846,1.96786154 1.96753846,10.4899846 1.96753846,20.9651077 C1.96753846,26.6771077 4.50175385,31.8078923 8.50467692,35.2935692 C8.42713846,34.9359231 8.38707692,34.5773077 8.38707692,34.2209538 C8.38707692,31.8980308 9.40476923,29.8090154 11.0166,28.3732615 L11.0166,16.6497692 C11.0166,12.2963077 13.7779385,8.57607692 17.6409692,7.14710769 C18.3972923,6.86732308 19.1962615,6.67638462 20.0246308,6.58495385 C20.3926154,6.54424615 20.7660923,6.52163077 21.1447385,6.52163077 C26.7294462,6.52163077 31.2732,11.0650615 31.2732,16.6497692 L31.2732,28.7131385 C32.6753538,30.1291846 33.5434615,32.0754 33.5434615,34.2209538 C33.5434615,34.5763385 33.5076,34.9317231 33.4362,35.2845231 Z M22.1385231,26.0774769 C21.8616462,26.1130154 21.5808923,26.1353077 21.2959385,26.1404769 C21.2471538,26.1414462 21.1980462,26.1420923 21.1492615,26.1420923 C20.8132615,26.1420923 20.4801692,26.1181846 20.1512769,26.0748923 L20.1512769,27.1265077 C20.1512769,27.6741231 20.5971231,28.1199692 21.1447385,28.1199692 C21.6926769,28.1199692 22.1385231,27.6741231 22.1385231,27.1265077 L22.1385231,26.0774769 Z M21.7876615,24.5742 C22.7892,24.4711385 23.7206308,24.1283538 24.5299385,23.6065846 C26.2781077,22.4800154 27.447,20.5199077 27.447,18.3097385 L27.447,16.8277846 C27.447,15.9868154 27.2780308,15.1610308 26.9575385,14.3946923 C25.8484154,15.2489077 24.4763077,15.7260923 23.0612308,15.7260923 C21.3980308,15.7260923 19.8133385,15.0721846 18.6347538,13.9372154 C17.8015385,15.1455231 16.4232923,15.9076615 14.9090308,15.9296308 C14.8667077,16.2262154 14.8428,16.5260308 14.8428,16.8277846 L14.8428,18.1504615 C14.8428,19.8853846 15.5590615,21.5831538 16.8077538,22.8085846 C18.0244615,24.0020308 19.6133538,24.6436615 21.2668615,24.6103846 C21.4426154,24.6071538 21.6154615,24.5919692 21.7876615,24.5742 Z M17.7362769,8.75829231 C14.6864308,10.0806462 12.5470154,13.1195077 12.5470154,16.6497692 L12.5470154,27.3058154 C13.6432154,26.7213692 14.8932,26.3886 16.2194308,26.3886 L18.6208615,26.3886 L18.6208615,25.7098154 C17.5582615,25.3356923 16.5757846,24.7247538 15.7361077,23.9009077 C14.1956769,22.3895538 13.3123846,20.2934308 13.3123846,18.1504615 L13.3123846,16.8277846 C13.3123846,16.1903538 13.3892769,15.5564769 13.5408,14.9432769 C13.5446769,14.9277692 13.5517846,14.9142 13.5563077,14.8993385 C13.5630923,14.8780154 13.5705231,14.8570154 13.5789231,14.8363385 C13.5899077,14.8098462 13.6018615,14.7843231 13.6157538,14.7594462 C13.6260923,14.7407077 13.6370769,14.7222923 13.6490308,14.7045231 C13.6645385,14.6809385 13.6813385,14.6586462 13.6991077,14.6373231 C13.713,14.6208462 13.7275385,14.6050154 13.7424,14.5898308 C13.7617846,14.5704462 13.7814923,14.5526769 13.8024923,14.5355538 C13.8202615,14.5210154 13.8380308,14.5077692 13.8567692,14.4951692 C13.8780923,14.4809538 13.8994154,14.4677077 13.9220308,14.4557538 C13.9433538,14.4441231 13.965,14.4337846 13.9872923,14.4244154 C14.0095846,14.4150462 14.0322,14.4066462 14.0554615,14.3992154 C14.0796923,14.3917846 14.1039231,14.3853231 14.1288,14.3801538 C14.1523846,14.3753077 14.1762923,14.3714308 14.2008462,14.3688462 C14.2260462,14.3662615 14.2512462,14.3646462 14.2770923,14.3643231 C14.3022923,14.364 14.3274923,14.3652923 14.3530154,14.3678769 C14.3672308,14.3691692 14.3808,14.3675538 14.3946923,14.3694923 C14.5413692,14.3908154 14.6919231,14.4018 14.8421538,14.4018 C16.1541692,14.4018 17.3233846,13.5695538 17.7517846,12.3305538 C17.7524308,12.3289385 17.7534,12.3273231 17.7540462,12.3253846 C17.7666462,12.2904923 17.7834462,12.2572154 17.8008923,12.2242615 C17.8076769,12.2116615 17.8128462,12.1977692 17.8202769,12.1854923 C17.8325538,12.1651385 17.8483846,12.1470462 17.8626,12.1276615 C17.8790769,12.1056923 17.8942615,12.0827538 17.9123538,12.0627231 C17.9204308,12.0543231 17.9298,12.0472154 17.9382,12.0391385 C17.9666308,12.0110308 17.9963538,11.9838923 18.0286615,11.9603077 C18.0299538,11.9596615 18.0309231,11.9583692 18.0322154,11.9574 C18.0383538,11.9532 18.0451385,11.9506154 18.0516,11.9464154 C18.0868154,11.9231538 18.123,11.9018308 18.1614462,11.8843846 C18.1708154,11.8801846 18.1801846,11.8776 18.1892308,11.8740462 C18.2270308,11.8588615 18.2651538,11.8456154 18.3048923,11.8365692 C18.3116769,11.8349538 18.3184615,11.8343077 18.3255692,11.8330154 C18.3265385,11.8330154 18.3271846,11.8326923 18.3281538,11.8326923 C18.3695077,11.8246154 18.4111846,11.8188 18.4538308,11.8178308 C18.4586769,11.8178308 18.4635231,11.8181538 18.4686923,11.8181538 C18.5126308,11.8178308 18.5568923,11.8207385 18.6014769,11.8281692 C18.6053538,11.8288154 18.6092308,11.8301077 18.6131077,11.8310769 C18.6502615,11.8378615 18.6880615,11.8446462 18.7248923,11.8575692 C18.8835231,11.9124923 19.0104923,12.0149077 19.0996615,12.1425231 C19.4650615,12.6591231 19.9254462,13.0872 20.4439846,13.4202923 C21.2161385,13.9162154 22.1207538,14.1956769 23.0612308,14.1956769 C24.4094308,14.1956769 25.7075538,13.6273846 26.6228308,12.6365077 C26.6296154,12.6290769 26.6376923,12.6239077 26.6448,12.6168 C26.6616,12.6 26.6800154,12.5848154 26.6984308,12.5696308 C26.7210462,12.5508923 26.7436615,12.5331231 26.7675692,12.5172923 C26.7743538,12.5127692 26.7798462,12.5069538 26.7866308,12.5027538 C26.7979385,12.4959692 26.8102154,12.4920923 26.8218462,12.4859538 C26.8480154,12.4717385 26.8745077,12.4584923 26.9022923,12.4475077 C26.9229692,12.4391077 26.9436462,12.4326462 26.9646462,12.4261846 C26.9904923,12.4184308 27.0163385,12.4116462 27.0428308,12.4064769 C27.0657692,12.4022769 27.0887077,12.3993692 27.1116462,12.3971077 C27.1374923,12.3948462 27.1630154,12.3932308 27.1891846,12.3932308 C27.2118,12.3935538 27.2344154,12.3948462 27.2570308,12.3971077 C27.2835231,12.3996923 27.3096923,12.4032462 27.3361846,12.4084154 C27.3575077,12.4129385 27.3785077,12.4184308 27.3998308,12.4245692 C27.4256769,12.4323231 27.4512,12.4407231 27.4764,12.4510615 C27.4977231,12.4597846 27.5177538,12.4701231 27.5381077,12.4807846 C27.5613692,12.4927385 27.5836615,12.5053385 27.6056308,12.5198769 C27.6269538,12.5337692 27.6469846,12.5496 27.6670154,12.5660769 C27.6792923,12.5757692 27.6925385,12.5832 27.7038462,12.5938615 C27.7112769,12.6006462 27.7161231,12.6087231 27.7232308,12.6155077 C27.7406769,12.6329538 27.7568308,12.6520154 27.7726615,12.6717231 C27.7904308,12.6930462 27.8075538,12.7143692 27.8227385,12.7373077 C27.8275846,12.7447385 27.8337231,12.7505538 27.8382462,12.7583077 C28.5835846,13.9811538 28.9774154,15.3884769 28.9774154,16.8277846 L28.9774154,18.3097385 C28.9774154,21.1841538 27.3878769,23.7193385 25.0455692,25.0814308 C24.6100615,25.3347231 24.1512923,25.5521538 23.6689385,25.7185385 L23.6689385,26.3886 L25.7107846,26.3886 C27.1846615,26.3886 28.5642,26.7982615 29.7427846,27.5090308 L29.7427846,16.6497692 C29.7427846,11.9089385 25.8855692,8.05204615 21.1447385,8.05204615 C20.9505692,8.05204615 20.7583385,8.06076923 20.5670769,8.07369231 C19.5674769,8.14024615 18.6140769,8.37770769 17.7362769,8.75829231 Z M30.4816615,37.4019692 C31.5138923,36.4304769 32.0130462,35.3103692 32.0130462,34.2209538 C32.0130462,30.7459385 29.1858,27.9190154 25.7107846,27.9190154 L23.5393846,27.9190154 C23.2059692,28.9234615 22.2593538,29.6503846 21.1447385,29.6503846 C20.0301231,29.6503846 19.0835077,28.9234615 18.7504154,27.9190154 L16.2194308,27.9190154 C12.7447385,27.9190154 9.91749231,30.7459385 9.91749231,34.2209538 C9.91749231,35.3591538 10.4799692,36.5018769 11.5813385,37.4785385 C14.3510769,39.0587077 17.5543846,39.9626769 20.9651077,39.9626769 C23.3478,39.9626769 25.6293692,39.5216769 27.7322769,38.7168923 C28.6443231,38.3679692 29.5221231,37.9489385 30.3608308,37.4698154 C30.4008923,37.4468769 30.4419231,37.4252308 30.4816615,37.4019692 Z M41.9143846,20.3367231 C41.9205231,20.5460769 41.9302154,20.7544615 41.9302154,20.9651077 C41.9302154,21.1760769 41.9205231,21.3844615 41.9143846,21.5938154 C41.6904923,29.1463846 37.4556,35.7058154 31.2680308,39.2131385 C30.4273846,39.69 29.5508769,40.1090308 28.6433538,40.4676462 C26.3866615,41.3593385 23.9406462,41.8694769 21.3825231,41.9198769 C21.2432769,41.9224615 21.1053231,41.9302154 20.9651077,41.9302154 C20.8252154,41.9302154 20.6872615,41.9224615 20.5480154,41.9198769 C9.31947692,41.6985692 0.231646154,32.6107385 0.0106615385,21.3825231 C0.00807692308,21.2432769 0,21.1053231 0,20.9651077 C0,20.8252154 0.00807692308,20.6872615 0.0106615385,20.5480154 C0.230353846,9.39023077 9.20575385,0.346338462 20.3367231,0.0161538462 C20.5460769,0.00969230769 20.7544615,0 20.9651077,0 C21.1760769,0 21.3844615,0.00969230769 21.5938154,0.0161538462 C32.6543538,0.344076923 41.5861385,9.27618462 41.9143846,20.3367231 Z" id="path-1"></path>
        <path d="M33.4362,35.2845231 C37.4329846,31.7991692 39.9626769,26.6722615 39.9626769,20.9651077 C39.9626769,10.4899846 31.4405538,1.96786154 20.9651077,1.96786154 C10.4899846,1.96786154 1.96753846,10.4899846 1.96753846,20.9651077 C1.96753846,26.6771077 4.50175385,31.8078923 8.50467692,35.2935692 C8.42713846,34.9359231 8.38707692,34.5773077 8.38707692,34.2209538 C8.38707692,31.8980308 9.40476923,29.8090154 11.0166,28.3732615 L11.0166,16.6497692 C11.0166,12.2963077 13.7779385,8.57607692 17.6409692,7.14710769 C18.3972923,6.86732308 19.1962615,6.67638462 20.0246308,6.58495385 C20.3926154,6.54424615 20.7660923,6.52163077 21.1447385,6.52163077 C26.7294462,6.52163077 31.2732,11.0650615 31.2732,16.6497692 L31.2732,28.7131385 C32.6753538,30.1291846 33.5434615,32.0754 33.5434615,34.2209538 C33.5434615,34.5763385 33.5076,34.9317231 33.4362,35.2845231 Z M22.1385231,26.0774769 C21.8616462,26.1130154 21.5808923,26.1353077 21.2959385,26.1404769 C21.2471538,26.1414462 21.1980462,26.1420923 21.1492615,26.1420923 C20.8132615,26.1420923 20.4801692,26.1181846 20.1512769,26.0748923 L20.1512769,27.1265077 C20.1512769,27.6741231 20.5971231,28.1199692 21.1447385,28.1199692 C21.6926769,28.1199692 22.1385231,27.6741231 22.1385231,27.1265077 L22.1385231,26.0774769 Z M21.7876615,24.5742 C22.7892,24.4711385 23.7206308,24.1283538 24.5299385,23.6065846 C26.2781077,22.4800154 27.447,20.5199077 27.447,18.3097385 L27.447,16.8277846 C27.447,15.9868154 27.2780308,15.1610308 26.9575385,14.3946923 C25.8484154,15.2489077 24.4763077,15.7260923 23.0612308,15.7260923 C21.3980308,15.7260923 19.8133385,15.0721846 18.6347538,13.9372154 C17.8015385,15.1455231 16.4232923,15.9076615 14.9090308,15.9296308 C14.8667077,16.2262154 14.8428,16.5260308 14.8428,16.8277846 L14.8428,18.1504615 C14.8428,19.8853846 15.5590615,21.5831538 16.8077538,22.8085846 C18.0244615,24.0020308 19.6133538,24.6436615 21.2668615,24.6103846 C21.4426154,24.6071538 21.6154615,24.5919692 21.7876615,24.5742 Z M17.7362769,8.75829231 C14.6864308,10.0806462 12.5470154,13.1195077 12.5470154,16.6497692 L12.5470154,27.3058154 C13.6432154,26.7213692 14.8932,26.3886 16.2194308,26.3886 L18.6208615,26.3886 L18.6208615,25.7098154 C17.5582615,25.3356923 16.5757846,24.7247538 15.7361077,23.9009077 C14.1956769,22.3895538 13.3123846,20.2934308 13.3123846,18.1504615 L13.3123846,16.8277846 C13.3123846,16.1903538 13.3892769,15.5564769 13.5408,14.9432769 C13.5446769,14.9277692 13.5517846,14.9142 13.5563077,14.8993385 C13.5630923,14.8780154 13.5705231,14.8570154 13.5789231,14.8363385 C13.5899077,14.8098462 13.6018615,14.7843231 13.6157538,14.7594462 C13.6260923,14.7407077 13.6370769,14.7222923 13.6490308,14.7045231 C13.6645385,14.6809385 13.6813385,14.6586462 13.6991077,14.6373231 C13.713,14.6208462 13.7275385,14.6050154 13.7424,14.5898308 C13.7617846,14.5704462 13.7814923,14.5526769 13.8024923,14.5355538 C13.8202615,14.5210154 13.8380308,14.5077692 13.8567692,14.4951692 C13.8780923,14.4809538 13.8994154,14.4677077 13.9220308,14.4557538 C13.9433538,14.4441231 13.965,14.4337846 13.9872923,14.4244154 C14.0095846,14.4150462 14.0322,14.4066462 14.0554615,14.3992154 C14.0796923,14.3917846 14.1039231,14.3853231 14.1288,14.3801538 C14.1523846,14.3753077 14.1762923,14.3714308 14.2008462,14.3688462 C14.2260462,14.3662615 14.2512462,14.3646462 14.2770923,14.3643231 C14.3022923,14.364 14.3274923,14.3652923 14.3530154,14.3678769 C14.3672308,14.3691692 14.3808,14.3675538 14.3946923,14.3694923 C14.5413692,14.3908154 14.6919231,14.4018 14.8421538,14.4018 C16.1541692,14.4018 17.3233846,13.5695538 17.7517846,12.3305538 C17.7524308,12.3289385 17.7534,12.3273231 17.7540462,12.3253846 C17.7666462,12.2904923 17.7834462,12.2572154 17.8008923,12.2242615 C17.8076769,12.2116615 17.8128462,12.1977692 17.8202769,12.1854923 C17.8325538,12.1651385 17.8483846,12.1470462 17.8626,12.1276615 C17.8790769,12.1056923 17.8942615,12.0827538 17.9123538,12.0627231 C17.9204308,12.0543231 17.9298,12.0472154 17.9382,12.0391385 C17.9666308,12.0110308 17.9963538,11.9838923 18.0286615,11.9603077 C18.0299538,11.9596615 18.0309231,11.9583692 18.0322154,11.9574 C18.0383538,11.9532 18.0451385,11.9506154 18.0516,11.9464154 C18.0868154,11.9231538 18.123,11.9018308 18.1614462,11.8843846 C18.1708154,11.8801846 18.1801846,11.8776 18.1892308,11.8740462 C18.2270308,11.8588615 18.2651538,11.8456154 18.3048923,11.8365692 C18.3116769,11.8349538 18.3184615,11.8343077 18.3255692,11.8330154 C18.3265385,11.8330154 18.3271846,11.8326923 18.3281538,11.8326923 C18.3695077,11.8246154 18.4111846,11.8188 18.4538308,11.8178308 C18.4586769,11.8178308 18.4635231,11.8181538 18.4686923,11.8181538 C18.5126308,11.8178308 18.5568923,11.8207385 18.6014769,11.8281692 C18.6053538,11.8288154 18.6092308,11.8301077 18.6131077,11.8310769 C18.6502615,11.8378615 18.6880615,11.8446462 18.7248923,11.8575692 C18.8835231,11.9124923 19.0104923,12.0149077 19.0996615,12.1425231 C19.4650615,12.6591231 19.9254462,13.0872 20.4439846,13.4202923 C21.2161385,13.9162154 22.1207538,14.1956769 23.0612308,14.1956769 C24.4094308,14.1956769 25.7075538,13.6273846 26.6228308,12.6365077 C26.6296154,12.6290769 26.6376923,12.6239077 26.6448,12.6168 C26.6616,12.6 26.6800154,12.5848154 26.6984308,12.5696308 C26.7210462,12.5508923 26.7436615,12.5331231 26.7675692,12.5172923 C26.7743538,12.5127692 26.7798462,12.5069538 26.7866308,12.5027538 C26.7979385,12.4959692 26.8102154,12.4920923 26.8218462,12.4859538 C26.8480154,12.4717385 26.8745077,12.4584923 26.9022923,12.4475077 C26.9229692,12.4391077 26.9436462,12.4326462 26.9646462,12.4261846 C26.9904923,12.4184308 27.0163385,12.4116462 27.0428308,12.4064769 C27.0657692,12.4022769 27.0887077,12.3993692 27.1116462,12.3971077 C27.1374923,12.3948462 27.1630154,12.3932308 27.1891846,12.3932308 C27.2118,12.3935538 27.2344154,12.3948462 27.2570308,12.3971077 C27.2835231,12.3996923 27.3096923,12.4032462 27.3361846,12.4084154 C27.3575077,12.4129385 27.3785077,12.4184308 27.3998308,12.4245692 C27.4256769,12.4323231 27.4512,12.4407231 27.4764,12.4510615 C27.4977231,12.4597846 27.5177538,12.4701231 27.5381077,12.4807846 C27.5613692,12.4927385 27.5836615,12.5053385 27.6056308,12.5198769 C27.6269538,12.5337692 27.6469846,12.5496 27.6670154,12.5660769 C27.6792923,12.5757692 27.6925385,12.5832 27.7038462,12.5938615 C27.7112769,12.6006462 27.7161231,12.6087231 27.7232308,12.6155077 C27.7406769,12.6329538 27.7568308,12.6520154 27.7726615,12.6717231 C27.7904308,12.6930462 27.8075538,12.7143692 27.8227385,12.7373077 C27.8275846,12.7447385 27.8337231,12.7505538 27.8382462,12.7583077 C28.5835846,13.9811538 28.9774154,15.3884769 28.9774154,16.8277846 L28.9774154,18.3097385 C28.9774154,21.1841538 27.3878769,23.7193385 25.0455692,25.0814308 C24.6100615,25.3347231 24.1512923,25.5521538 23.6689385,25.7185385 L23.6689385,26.3886 L25.7107846,26.3886 C27.1846615,26.3886 28.5642,26.7982615 29.7427846,27.5090308 L29.7427846,16.6497692 C29.7427846,11.9089385 25.8855692,8.05204615 21.1447385,8.05204615 C20.9505692,8.05204615 20.7583385,8.06076923 20.5670769,8.07369231 C19.5674769,8.14024615 18.6140769,8.37770769 17.7362769,8.75829231 Z M30.4816615,37.4019692 C31.5138923,36.4304769 32.0130462,35.3103692 32.0130462,34.2209538 C32.0130462,30.7459385 29.1858,27.9190154 25.7107846,27.9190154 L23.5393846,27.9190154 C23.2059692,28.9234615 22.2593538,29.6503846 21.1447385,29.6503846 C20.0301231,29.6503846 19.0835077,28.9234615 18.7504154,27.9190154 L16.2194308,27.9190154 C12.7447385,27.9190154 9.91749231,30.7459385 9.91749231,34.2209538 C9.91749231,35.3591538 10.4799692,36.5018769 11.5813385,37.4785385 C14.3510769,39.0587077 17.5543846,39.9626769 20.9651077,39.9626769 C23.3478,39.9626769 25.6293692,39.5216769 27.7322769,38.7168923 C28.6443231,38.3679692 29.5221231,37.9489385 30.3608308,37.4698154 C30.4008923,37.4468769 30.4419231,37.4252308 30.4816615,37.4019692 Z M41.9143846,20.3367231 C41.9205231,20.5460769 41.9302154,20.7544615 41.9302154,20.9651077 C41.9302154,21.1760769 41.9205231,21.3844615 41.9143846,21.5938154 C41.6904923,29.1463846 37.4556,35.7058154 31.2680308,39.2131385 C30.4273846,39.69 29.5508769,40.1090308 28.6433538,40.4676462 C26.3866615,41.3593385 23.9406462,41.8694769 21.3825231,41.9198769 C21.2432769,41.9224615 21.1053231,41.9302154 20.9651077,41.9302154 C20.8252154,41.9302154 20.6872615,41.9224615 20.5480154,41.9198769 C9.31947692,41.6985692 0.231646154,32.6107385 0.0106615385,21.3825231 C0.00807692308,21.2432769 0,21.1053231 0,20.9651077 C0,20.8252154 0.00807692308,20.6872615 0.0106615385,20.5480154 C0.230353846,9.39023077 9.20575385,0.346338462 20.3367231,0.0161538462 C20.5460769,0.00969230769 20.7544615,0 20.9651077,0 C21.1760769,0 21.3844615,0.00969230769 21.5938154,0.0161538462 C32.6543538,0.344076923 41.5861385,9.27618462 41.9143846,20.3367231 Z" id="path-3"></path>
        <path d="M34.428458,34.3324154 C37.8076947,30.8971385 39.8983969,26.1727846 39.8983969,20.9651077 C39.8983969,10.4899846 31.4416489,1.96786154 21.0461679,1.96786154 C10.6510076,1.96786154 2.19361832,10.4899846 2.19361832,20.9651077 C2.19361832,26.1789231 4.28945038,30.9084462 7.67574046,34.3446923 C8.81807634,29.6193692 12.8786107,26.0994462 17.7060458,25.6762154 L17.7060458,25.1544462 C16.0731756,24.3470769 14.7580305,22.953 14.0235115,21.2497385 C12.9488244,21.2300308 12.0799695,20.3444769 12.0799695,19.2566769 C12.0799695,18.4506 12.558,17.7559846 13.2428244,17.4419538 C12.5762748,17.1095077 12.1142748,16.4213538 12.107542,15.624 L12.0822137,14.9865692 C12.0822137,10.0606154 16.0590687,6.05284615 20.9474198,6.05284615 C21.2096794,6.05284615 21.4687328,6.06673846 21.7252214,6.08935385 C22.7171908,6.17690769 23.6620305,6.42923077 24.5340916,6.81983077 C27.6401679,8.21035385 29.812626,11.3467846 29.812626,14.9865692 L29.812626,15.6065538 C29.812626,16.4161846 29.3429313,17.1156462 28.6648397,17.4480923 C29.3426107,17.7650308 29.8148702,18.4554462 29.8148702,19.2566769 C29.8148702,20.3257385 28.9758321,21.1980462 27.9267939,21.2468308 C27.538855,22.1769692 26.9649618,23.0286 26.2233893,23.7555231 C25.6709771,24.297 25.0518779,24.7418769 24.3862901,25.0853077 L24.3862901,25.6590923 C29.2964427,25.9870154 33.3082443,29.4733385 34.428458,34.3324154 Z M22.8675573,25.6674923 C22.2487786,25.83 21.6059542,25.9152923 20.9496641,25.9152923 C20.8781679,25.9152923 20.8069924,25.914 20.7354962,25.9120615 C20.2177099,25.8978462 19.7124275,25.8280615 19.2247786,25.7094923 L19.2247786,26.3960308 C19.2247786,27.4079077 20.0420153,28.2311077 21.0461679,28.2311077 C22.0506412,28.2311077 22.8675573,27.4079077 22.8675573,26.3960308 L22.8675573,25.6674923 Z M13.8163969,16.0055538 C14.7048092,15.1119231 15.2915267,13.9514308 15.4704275,12.7027385 C15.474916,12.6704308 15.484855,12.6407077 15.4931908,12.6103385 C15.5031298,12.4122923 15.5884122,12.2187692 15.7471145,12.0769385 C16.0609924,11.7968308 16.5409466,11.8252615 16.8192366,12.1418769 C17.9237405,13.3976769 19.5117252,14.1178154 21.175374,14.1178154 C22.6719847,14.1178154 24.0926107,13.5469385 25.1781985,12.5101846 C25.2169924,12.4710923 25.2605954,12.4368462 25.3077252,12.4071231 C25.3170229,12.4013077 25.3266412,12.3977538 25.3359389,12.3922615 C25.3692824,12.3728769 25.4032672,12.3544615 25.4398168,12.3402462 C25.4574504,12.3334615 25.4757252,12.3302308 25.494,12.3247385 C25.5209313,12.3163385 25.547542,12.306 25.5760763,12.3008308 C25.5786412,12.3001846 25.5812061,12.3005077 25.583771,12.3001846 C25.5985191,12.2976 25.6129466,12.2982462 25.6276947,12.2966308 C25.8697557,12.2691692 26.100916,12.3573692 26.2599389,12.5240769 C26.2605802,12.5250462 26.261542,12.5256923 26.2625038,12.5263385 C26.2718015,12.5363538 26.2778931,12.5476615 26.2865496,12.5576769 C26.3096336,12.5848154 26.3327176,12.6119538 26.3516336,12.642 C26.3667023,12.6655846 26.3772824,12.6904615 26.3894656,12.7150154 C26.399084,12.7347231 26.4103053,12.7531385 26.4183206,12.7741385 C26.4337099,12.8135538 26.4442901,12.8539385 26.4529466,12.8949692 C26.4545496,12.9024 26.4577557,12.9088615 26.4590382,12.9162923 C26.4596794,12.9192 26.4606412,12.9221077 26.4609618,12.9250154 C26.4612824,12.9256615 26.4612824,12.9259846 26.4612824,12.9266308 C26.6741679,14.0919692 27.2509466,15.1781538 28.0893435,16.0175077 C28.2127786,15.9228462 28.2938931,15.7745538 28.2938931,15.6065538 L28.2938931,14.9865692 C28.2938931,12.1098923 26.6565344,9.61315385 24.2724733,8.38836923 C23.4225344,7.95156923 22.4780153,7.67727692 21.4783511,7.60490769 C21.3026565,7.59198462 21.126,7.58326154 20.9474198,7.58326154 C16.9016336,7.58326154 13.6092824,10.8960923 13.6009466,14.9710615 L13.6262748,15.6065538 C13.6262748,15.7677692 13.7012977,15.9105692 13.8163969,16.0055538 Z M14.9000611,17.0849538 L14.9000611,18.1478769 C14.9000611,20.2818 15.973145,22.1879538 17.5887023,23.3154923 C18.361374,23.8553538 19.2571603,24.2175231 20.2218779,24.3380308 C20.4049466,24.3606462 20.5896183,24.3771231 20.776855,24.3822923 C22.4263969,24.4330154 23.9842443,23.8156154 25.1640916,22.6586769 C26.3445802,21.5014154 26.9947786,19.9503231 26.9947786,18.291 L26.9947786,17.0768769 C26.2378168,16.3115077 25.6514198,15.3871846 25.2862443,14.3782154 C24.0804275,15.2023846 22.6578779,15.6482308 21.175374,15.6482308 C19.5450687,15.6482308 17.9737557,15.0977077 16.7002901,14.1100615 C16.345374,15.2256462 15.7288397,16.2491538 14.9000611,17.0849538 Z M21.0461679,39.9626769 C25.6318626,39.9626769 29.8398779,38.3036769 33.1117099,35.5507385 C32.4451603,30.9052154 28.8087939,27.4919077 24.2894656,27.1859538 C23.9351908,28.6611231 22.6174809,29.7615231 21.0461679,29.7615231 C19.4803053,29.7615231 18.1667634,28.6688769 17.8067176,27.2014615 C13.3550382,27.6059538 9.66352672,31.0522154 8.98575573,35.5546154 C9.89180153,36.3167538 10.872229,36.9913385 11.9100458,37.5735231 C12.6121832,37.9673538 13.3415725,38.3172462 14.0950076,38.6196462 C16.2472672,39.4835538 18.5915725,39.9626769 21.0461679,39.9626769 Z M21.0673282,0.000646153846 C32.5294809,0.0122769231 41.8512366,9.4122 41.8512366,20.9651077 C41.8512366,32.5183385 32.5294809,41.9182615 21.0673282,41.9298923 C21.0602748,41.9298923 21.0532214,41.9302154 21.0461679,41.9302154 C9.57407634,41.9302154 0.241099237,32.5254462 0.241099237,20.9651077 C0.241099237,9.40509231 9.57407634,0.000323076923 21.0461679,0 C21.0532214,0 21.0602748,0.000646153846 21.0673282,0.000646153846 Z" id="path-5"></path>
        <path d="M34.428458,34.3324154 C37.8076947,30.8971385 39.8983969,26.1727846 39.8983969,20.9651077 C39.8983969,10.4899846 31.4416489,1.96786154 21.0461679,1.96786154 C10.6510076,1.96786154 2.19361832,10.4899846 2.19361832,20.9651077 C2.19361832,26.1789231 4.28945038,30.9084462 7.67574046,34.3446923 C8.81807634,29.6193692 12.8786107,26.0994462 17.7060458,25.6762154 L17.7060458,25.1544462 C16.0731756,24.3470769 14.7580305,22.953 14.0235115,21.2497385 C12.9488244,21.2300308 12.0799695,20.3444769 12.0799695,19.2566769 C12.0799695,18.4506 12.558,17.7559846 13.2428244,17.4419538 C12.5762748,17.1095077 12.1142748,16.4213538 12.107542,15.624 L12.0822137,14.9865692 C12.0822137,10.0606154 16.0590687,6.05284615 20.9474198,6.05284615 C21.2096794,6.05284615 21.4687328,6.06673846 21.7252214,6.08935385 C22.7171908,6.17690769 23.6620305,6.42923077 24.5340916,6.81983077 C27.6401679,8.21035385 29.812626,11.3467846 29.812626,14.9865692 L29.812626,15.6065538 C29.812626,16.4161846 29.3429313,17.1156462 28.6648397,17.4480923 C29.3426107,17.7650308 29.8148702,18.4554462 29.8148702,19.2566769 C29.8148702,20.3257385 28.9758321,21.1980462 27.9267939,21.2468308 C27.538855,22.1769692 26.9649618,23.0286 26.2233893,23.7555231 C25.6709771,24.297 25.0518779,24.7418769 24.3862901,25.0853077 L24.3862901,25.6590923 C29.2964427,25.9870154 33.3082443,29.4733385 34.428458,34.3324154 Z M22.8675573,25.6674923 C22.2487786,25.83 21.6059542,25.9152923 20.9496641,25.9152923 C20.8781679,25.9152923 20.8069924,25.914 20.7354962,25.9120615 C20.2177099,25.8978462 19.7124275,25.8280615 19.2247786,25.7094923 L19.2247786,26.3960308 C19.2247786,27.4079077 20.0420153,28.2311077 21.0461679,28.2311077 C22.0506412,28.2311077 22.8675573,27.4079077 22.8675573,26.3960308 L22.8675573,25.6674923 Z M13.8163969,16.0055538 C14.7048092,15.1119231 15.2915267,13.9514308 15.4704275,12.7027385 C15.474916,12.6704308 15.484855,12.6407077 15.4931908,12.6103385 C15.5031298,12.4122923 15.5884122,12.2187692 15.7471145,12.0769385 C16.0609924,11.7968308 16.5409466,11.8252615 16.8192366,12.1418769 C17.9237405,13.3976769 19.5117252,14.1178154 21.175374,14.1178154 C22.6719847,14.1178154 24.0926107,13.5469385 25.1781985,12.5101846 C25.2169924,12.4710923 25.2605954,12.4368462 25.3077252,12.4071231 C25.3170229,12.4013077 25.3266412,12.3977538 25.3359389,12.3922615 C25.3692824,12.3728769 25.4032672,12.3544615 25.4398168,12.3402462 C25.4574504,12.3334615 25.4757252,12.3302308 25.494,12.3247385 C25.5209313,12.3163385 25.547542,12.306 25.5760763,12.3008308 C25.5786412,12.3001846 25.5812061,12.3005077 25.583771,12.3001846 C25.5985191,12.2976 25.6129466,12.2982462 25.6276947,12.2966308 C25.8697557,12.2691692 26.100916,12.3573692 26.2599389,12.5240769 C26.2605802,12.5250462 26.261542,12.5256923 26.2625038,12.5263385 C26.2718015,12.5363538 26.2778931,12.5476615 26.2865496,12.5576769 C26.3096336,12.5848154 26.3327176,12.6119538 26.3516336,12.642 C26.3667023,12.6655846 26.3772824,12.6904615 26.3894656,12.7150154 C26.399084,12.7347231 26.4103053,12.7531385 26.4183206,12.7741385 C26.4337099,12.8135538 26.4442901,12.8539385 26.4529466,12.8949692 C26.4545496,12.9024 26.4577557,12.9088615 26.4590382,12.9162923 C26.4596794,12.9192 26.4606412,12.9221077 26.4609618,12.9250154 C26.4612824,12.9256615 26.4612824,12.9259846 26.4612824,12.9266308 C26.6741679,14.0919692 27.2509466,15.1781538 28.0893435,16.0175077 C28.2127786,15.9228462 28.2938931,15.7745538 28.2938931,15.6065538 L28.2938931,14.9865692 C28.2938931,12.1098923 26.6565344,9.61315385 24.2724733,8.38836923 C23.4225344,7.95156923 22.4780153,7.67727692 21.4783511,7.60490769 C21.3026565,7.59198462 21.126,7.58326154 20.9474198,7.58326154 C16.9016336,7.58326154 13.6092824,10.8960923 13.6009466,14.9710615 L13.6262748,15.6065538 C13.6262748,15.7677692 13.7012977,15.9105692 13.8163969,16.0055538 Z M14.9000611,17.0849538 L14.9000611,18.1478769 C14.9000611,20.2818 15.973145,22.1879538 17.5887023,23.3154923 C18.361374,23.8553538 19.2571603,24.2175231 20.2218779,24.3380308 C20.4049466,24.3606462 20.5896183,24.3771231 20.776855,24.3822923 C22.4263969,24.4330154 23.9842443,23.8156154 25.1640916,22.6586769 C26.3445802,21.5014154 26.9947786,19.9503231 26.9947786,18.291 L26.9947786,17.0768769 C26.2378168,16.3115077 25.6514198,15.3871846 25.2862443,14.3782154 C24.0804275,15.2023846 22.6578779,15.6482308 21.175374,15.6482308 C19.5450687,15.6482308 17.9737557,15.0977077 16.7002901,14.1100615 C16.345374,15.2256462 15.7288397,16.2491538 14.9000611,17.0849538 Z M21.0461679,39.9626769 C25.6318626,39.9626769 29.8398779,38.3036769 33.1117099,35.5507385 C32.4451603,30.9052154 28.8087939,27.4919077 24.2894656,27.1859538 C23.9351908,28.6611231 22.6174809,29.7615231 21.0461679,29.7615231 C19.4803053,29.7615231 18.1667634,28.6688769 17.8067176,27.2014615 C13.3550382,27.6059538 9.66352672,31.0522154 8.98575573,35.5546154 C9.89180153,36.3167538 10.872229,36.9913385 11.9100458,37.5735231 C12.6121832,37.9673538 13.3415725,38.3172462 14.0950076,38.6196462 C16.2472672,39.4835538 18.5915725,39.9626769 21.0461679,39.9626769 Z M21.0673282,0.000646153846 C32.5294809,0.0122769231 41.8512366,9.4122 41.8512366,20.9651077 C41.8512366,32.5183385 32.5294809,41.9182615 21.0673282,41.9298923 C21.0602748,41.9298923 21.0532214,41.9302154 21.0461679,41.9302154 C9.57407634,41.9302154 0.241099237,32.5254462 0.241099237,20.9651077 C0.241099237,9.40509231 9.57407634,0.000323076923 21.0461679,0 C21.0532214,0 21.0602748,0.000646153846 21.0673282,0.000646153846 Z" id="path-7"></path>
        <path d="M34.428458,34.3324154 C37.8076947,30.8971385 39.8983969,26.1727846 39.8983969,20.9651077 C39.8983969,10.4899846 31.4416489,1.96786154 21.0461679,1.96786154 C10.6510076,1.96786154 2.19361832,10.4899846 2.19361832,20.9651077 C2.19361832,26.1789231 4.28945038,30.9084462 7.67574046,34.3446923 C8.81807634,29.6193692 12.8786107,26.0994462 17.7060458,25.6762154 L17.7060458,25.1544462 C16.0731756,24.3470769 14.7580305,22.953 14.0235115,21.2497385 C12.9488244,21.2300308 12.0799695,20.3444769 12.0799695,19.2566769 C12.0799695,18.4506 12.558,17.7559846 13.2428244,17.4419538 C12.5762748,17.1095077 12.1142748,16.4213538 12.107542,15.624 L12.0822137,14.9865692 C12.0822137,10.0606154 16.0590687,6.05284615 20.9474198,6.05284615 C21.2096794,6.05284615 21.4687328,6.06673846 21.7252214,6.08935385 C22.7171908,6.17690769 23.6620305,6.42923077 24.5340916,6.81983077 C27.6401679,8.21035385 29.812626,11.3467846 29.812626,14.9865692 L29.812626,15.6065538 C29.812626,16.4161846 29.3429313,17.1156462 28.6648397,17.4480923 C29.3426107,17.7650308 29.8148702,18.4554462 29.8148702,19.2566769 C29.8148702,20.3257385 28.9758321,21.1980462 27.9267939,21.2468308 C27.538855,22.1769692 26.9649618,23.0286 26.2233893,23.7555231 C25.6709771,24.297 25.0518779,24.7418769 24.3862901,25.0853077 L24.3862901,25.6590923 C29.2964427,25.9870154 33.3082443,29.4733385 34.428458,34.3324154 Z M22.8675573,25.6674923 C22.2487786,25.83 21.6059542,25.9152923 20.9496641,25.9152923 C20.8781679,25.9152923 20.8069924,25.914 20.7354962,25.9120615 C20.2177099,25.8978462 19.7124275,25.8280615 19.2247786,25.7094923 L19.2247786,26.3960308 C19.2247786,27.4079077 20.0420153,28.2311077 21.0461679,28.2311077 C22.0506412,28.2311077 22.8675573,27.4079077 22.8675573,26.3960308 L22.8675573,25.6674923 Z M13.8163969,16.0055538 C14.7048092,15.1119231 15.2915267,13.9514308 15.4704275,12.7027385 C15.474916,12.6704308 15.484855,12.6407077 15.4931908,12.6103385 C15.5031298,12.4122923 15.5884122,12.2187692 15.7471145,12.0769385 C16.0609924,11.7968308 16.5409466,11.8252615 16.8192366,12.1418769 C17.9237405,13.3976769 19.5117252,14.1178154 21.175374,14.1178154 C22.6719847,14.1178154 24.0926107,13.5469385 25.1781985,12.5101846 C25.2169924,12.4710923 25.2605954,12.4368462 25.3077252,12.4071231 C25.3170229,12.4013077 25.3266412,12.3977538 25.3359389,12.3922615 C25.3692824,12.3728769 25.4032672,12.3544615 25.4398168,12.3402462 C25.4574504,12.3334615 25.4757252,12.3302308 25.494,12.3247385 C25.5209313,12.3163385 25.547542,12.306 25.5760763,12.3008308 C25.5786412,12.3001846 25.5812061,12.3005077 25.583771,12.3001846 C25.5985191,12.2976 25.6129466,12.2982462 25.6276947,12.2966308 C25.8697557,12.2691692 26.100916,12.3573692 26.2599389,12.5240769 C26.2605802,12.5250462 26.261542,12.5256923 26.2625038,12.5263385 C26.2718015,12.5363538 26.2778931,12.5476615 26.2865496,12.5576769 C26.3096336,12.5848154 26.3327176,12.6119538 26.3516336,12.642 C26.3667023,12.6655846 26.3772824,12.6904615 26.3894656,12.7150154 C26.399084,12.7347231 26.4103053,12.7531385 26.4183206,12.7741385 C26.4337099,12.8135538 26.4442901,12.8539385 26.4529466,12.8949692 C26.4545496,12.9024 26.4577557,12.9088615 26.4590382,12.9162923 C26.4596794,12.9192 26.4606412,12.9221077 26.4609618,12.9250154 C26.4612824,12.9256615 26.4612824,12.9259846 26.4612824,12.9266308 C26.6741679,14.0919692 27.2509466,15.1781538 28.0893435,16.0175077 C28.2127786,15.9228462 28.2938931,15.7745538 28.2938931,15.6065538 L28.2938931,14.9865692 C28.2938931,12.1098923 26.6565344,9.61315385 24.2724733,8.38836923 C23.4225344,7.95156923 22.4780153,7.67727692 21.4783511,7.60490769 C21.3026565,7.59198462 21.126,7.58326154 20.9474198,7.58326154 C16.9016336,7.58326154 13.6092824,10.8960923 13.6009466,14.9710615 L13.6262748,15.6065538 C13.6262748,15.7677692 13.7012977,15.9105692 13.8163969,16.0055538 Z M14.9000611,17.0849538 L14.9000611,18.1478769 C14.9000611,20.2818 15.973145,22.1879538 17.5887023,23.3154923 C18.361374,23.8553538 19.2571603,24.2175231 20.2218779,24.3380308 C20.4049466,24.3606462 20.5896183,24.3771231 20.776855,24.3822923 C22.4263969,24.4330154 23.9842443,23.8156154 25.1640916,22.6586769 C26.3445802,21.5014154 26.9947786,19.9503231 26.9947786,18.291 L26.9947786,17.0768769 C26.2378168,16.3115077 25.6514198,15.3871846 25.2862443,14.3782154 C24.0804275,15.2023846 22.6578779,15.6482308 21.175374,15.6482308 C19.5450687,15.6482308 17.9737557,15.0977077 16.7002901,14.1100615 C16.345374,15.2256462 15.7288397,16.2491538 14.9000611,17.0849538 Z M21.0461679,39.9626769 C25.6318626,39.9626769 29.8398779,38.3036769 33.1117099,35.5507385 C32.4451603,30.9052154 28.8087939,27.4919077 24.2894656,27.1859538 C23.9351908,28.6611231 22.6174809,29.7615231 21.0461679,29.7615231 C19.4803053,29.7615231 18.1667634,28.6688769 17.8067176,27.2014615 C13.3550382,27.6059538 9.66352672,31.0522154 8.98575573,35.5546154 C9.89180153,36.3167538 10.872229,36.9913385 11.9100458,37.5735231 C12.6121832,37.9673538 13.3415725,38.3172462 14.0950076,38.6196462 C16.2472672,39.4835538 18.5915725,39.9626769 21.0461679,39.9626769 Z M21.0673282,0.000646153846 C32.5294809,0.0122769231 41.8512366,9.4122 41.8512366,20.9651077 C41.8512366,32.5183385 32.5294809,41.9182615 21.0673282,41.9298923 C21.0602748,41.9298923 21.0532214,41.9302154 21.0461679,41.9302154 C9.57407634,41.9302154 0.241099237,32.5254462 0.241099237,20.9651077 C0.241099237,9.40509231 9.57407634,0.000323076923 21.0461679,0 C21.0532214,0 21.0602748,0.000646153846 21.0673282,0.000646153846 Z" id="path-9"></path>
        <path d="M0.706,0.303 C1.39566667,-0.155666667 2.327,0.031 2.786,0.720333333 C3.63466667,1.995 4.52466667,3.272 5.431,4.51566667 C5.919,5.185 5.772,6.123 5.10266667,6.61133333 C4.836,6.80566667 4.52666667,6.899 4.22033333,6.899 C3.75733333,6.899 3.30066667,6.68533333 3.007,6.28266667 C2.07566667,5.005 1.161,3.693 0.289,2.383 C-0.170333333,1.69333333 0.0166666667,0.762333333 0.706,0.303 Z" id="path-11"></path>
        <path d="M1.715,6.70186364 C1.42233333,6.70186364 1.127,6.62040909 0.867333333,6.4505 C0.184666667,6.00281818 0.011,5.11127273 0.479666667,4.45963636 C1.352,3.24736364 2.20733333,2.00263636 3.022,0.760136364 C3.462,0.0894090909 4.38766667,-0.113272727 5.08933333,0.306090909 C5.79166667,0.725454545 6.00466667,1.60904545 5.565,2.27945455 C4.72766667,3.55631818 3.849,4.83509091 2.953,6.08045455 C2.662,6.48486364 2.19266667,6.70186364 1.715,6.70186364 Z" id="path-13"></path>
        <path d="M1.6152,6.75766667 C1.2897,6.75766667 0.9636,6.628 0.7047,6.365 C0.1542,5.80566667 0.1161,4.857 0.6189,4.24566667 C1.554,3.10966667 2.4783,1.93733333 3.3669,0.761666667 C3.8463,0.127666667 4.6977,0.0453333333 5.2686,0.577333333 C5.8398,1.11 5.9139,2.05633333 5.4345,2.69066667 C4.5216,3.89866667 3.5721,5.10266667 2.6118,6.26966667 C2.3454,6.59333333 1.9806,6.75766667 1.6152,6.75766667 Z" id="path-15"></path>
        <path d="M0.5241,0.7266 C1.0221,0.1719 1.8762,0.1257 2.4306,0.624 C3.4881,1.5735 4.5396,2.5584 5.5557,3.5517 C6.0891,4.0728 6.0987,4.9275 5.5776,5.4609 C5.3133,5.7315 4.9629,5.8671 4.6122,5.8671 C4.2717,5.8671 3.9312,5.7393 3.6684,5.4828 C2.6796,4.5159 1.6557,3.5571 0.6267,2.6328 C0.072,2.1348 0.0261,1.281 0.5241,0.7266 Z" id="path-17"></path>
        <path d="M0.3378,1.933875 C0.291,1.824375 0.246,1.7115 0.1995,1.601625 C1.0428,1.186125 1.857,0.7005 2.6379,0.148125 C2.6655,0.213 2.6919,0.27975 2.7195,0.344625 C3.0708,1.16625 2.8224,2.188875 2.1645,2.628 C1.962,2.763 1.7445,2.827125 1.5297,2.827125 C1.0476,2.827125 0.5808,2.503125 0.3378,1.933875 Z" id="path-19"></path>
        <path d="M0.1917,1.619625 C0.1794,1.581 0.1659,1.542375 0.1536,1.504125 C1.0062,1.119 1.83,0.659625 2.6226,0.136125 C2.6478,0.2145 2.6751,0.292875 2.7,0.371625 C2.9757,1.2375 2.6376,2.218875 1.9449,2.5635 C1.7811,2.644875 1.6122,2.6835 1.446,2.6835 C0.9093,2.6835 0.402,2.28075 0.1917,1.619625 Z" id="path-21"></path>
        <path d="M0.699333333,6.577 C0.548,5.04366667 0.363,3.497 0.148333333,1.97966667 C0.0326666667,1.15933333 0.603333333,0.400333333 1.42366667,0.284333333 C2.24433333,0.169666667 3.003,0.739333333 3.119,1.56 C3.339,3.11866667 3.52966667,4.70766667 3.685,6.283 C3.766,7.10733333 3.16333333,7.84133333 2.339,7.92266667 C2.289,7.92766667 2.23966667,7.93 2.19,7.93 C1.428,7.93 0.775666667,7.35166667 0.699333333,6.577 Z" id="path-23"></path>
        <path d="M1.4103,7.90816 C0.6657,7.87488 0.087,7.20384 0.1179,6.40896 C0.1758,4.9376 0.2049,3.44224 0.2049,1.96448 L0.2049,1.74112 C0.2022,0.94592 0.804,0.29824 1.5495,0.29536 L1.5549,0.29536 C2.2983,0.29536 2.9022,0.93632 2.9049,1.72928 L2.9049,1.97056 C2.9049,3.48224 2.8749,5.01792 2.8158,6.5296 C2.7852,7.30368 2.1873,7.90944 1.4676,7.90944 C1.4487,7.90944 1.4295,7.90912 1.4103,7.90816 Z" id="path-25"></path>
        <path d="M3.47071429,6.51033333 C3.31142857,7.217 2.64357143,7.702 1.89964286,7.702 C1.79,7.702 1.67892857,7.69166667 1.5675,7.66966667 C0.698571429,7.49933333 0.1425,6.704 0.325,5.89333333 C0.673214286,4.348 1.06178571,2.789 1.48035714,1.25866667 C1.70035714,0.456 2.57642857,-0.028 3.435,0.176333333 C4.295,0.381333333 4.81428571,1.19833333 4.595,2.00066667 C4.1875,3.48966667 3.80928571,5.00666667 3.47071429,6.51033333 Z" id="path-27"></path>
        <path d="M5.95452632,4.4496 C5.29610526,4.896 4.68442105,5.4 4.12736842,5.9547 C3.90915789,5.8893 3.70294737,5.7795 3.53273684,5.6124 C2.49315789,4.5912 1.46210526,3.5349 0.468947368,2.4732 C-0.0524210526,1.9161 0.000631578947,1.0626 0.587368421,0.5673 C1.17410526,0.0726 2.07189474,0.1221 2.59357895,0.6795 C3.56021053,1.7133 4.56347368,2.7411 5.57557895,3.735 C5.78336842,3.939 5.90873684,4.1892 5.95452632,4.4496 Z" id="path-29"></path>
        <path d="M4.72285714,5.88266667 C4.93214286,6.68766667 4.4025,7.49866667 3.54,7.694 C3.41285714,7.72266667 3.28535714,7.73666667 3.16,7.73666667 C2.43535714,7.73666667 1.7775,7.276 1.59928571,6.58966667 C1.21142857,5.098 0.783571429,3.59266667 0.327142857,2.11566667 C0.0807142857,1.31966667 0.5725,0.488 1.42571429,0.258333333 C2.27714286,0.0283333333 3.16928571,0.487666667 3.415,1.28366667 C3.88464286,2.802 4.32464286,4.34933333 4.72285714,5.88266667 Z" id="path-31"></path>
        <path d="M1.45027273,5.90894118 C0.956454545,5.90894118 0.476,5.62552941 0.210636364,5.11764706 C-0.186454545,4.35882353 0.0461363636,3.38717647 0.730227273,2.94670588 C2.03254545,2.10847059 3.36763636,1.29035294 4.69890909,0.515294118 C5.39954545,0.107294118 6.26468182,0.406588235 6.63218182,1.18341176 C6.99968182,1.96023529 6.73018182,2.92023529 6.02986364,3.32788235 C4.73422727,4.08211765 3.43477273,4.87835294 2.16745455,5.694 C1.94122727,5.83976471 1.69431818,5.90894118 1.45027273,5.90894118 Z" id="path-33"></path>
        <path d="M1.53634783,4.799 C0.995521739,4.799 0.483,4.44566667 0.266913043,3.863 C-0.0176521739,3.09533333 0.319869565,2.22033333 1.02078261,1.90866667 C2.3583913,1.314 3.72430435,0.743333333 5.07986957,0.213333333 C5.79173913,-0.065 6.57573913,0.341333333 6.83017391,1.12166667 C7.0846087,1.90166667 6.71330435,2.76 6.00082609,3.03866667 C4.68178261,3.55433333 3.353,4.10933333 2.05130435,4.68833333 C1.8823913,4.76333333 1.708,4.799 1.53634783,4.799 Z" id="path-35"></path>
        <path d="M0.702,2.90733333 C0.015,2.44466667 -0.167,1.51233333 0.296,0.825333333 C0.759,0.138 1.69066667,-0.0433333333 2.378,0.419 C3.68633333,1.3 4.996,2.223 6.27,3.16166667 C6.937,3.653 7.07933333,4.59233333 6.58833333,5.259 C6.29433333,5.65833333 5.83966667,5.86966667 5.37933333,5.86966667 C5.07033333,5.86966667 4.75866667,5.77433333 4.491,5.577 C3.25033333,4.66333333 1.976,3.765 0.702,2.90733333 Z" id="path-37"></path>
        <path d="M1.90036364,0.024 C2.80618182,0.00366666667 3.55709091,0.653333333 3.58181818,1.48133333 C3.62909091,3.021 3.712,4.57733333 3.82909091,6.10733333 C3.892,6.934 3.21236364,7.65066667 2.31090909,7.70866667 C2.272,7.711 2.23345455,7.71233333 2.19490909,7.71233333 C1.34327273,7.71233333 0.624727273,7.10766667 0.564363636,6.317 C0.444363636,4.74533333 0.358909091,3.14666667 0.310545455,1.56533333 C0.285454545,0.737333333 0.997454545,0.047 1.90036364,0.024 Z" id="path-39"></path>
        <path d="M1.66533333,4.66178571 C0.993333333,4.66178571 0.381666667,4.17428571 0.211333333,3.44428571 C0.0103333333,2.58321429 0.498666667,1.71071429 1.30266667,1.495 C2.83166667,1.08535714 4.39266667,0.704642857 5.94166667,0.363928571 C6.75266667,0.186785714 7.54633333,0.745714286 7.71266667,1.61535714 C7.87933333,2.48464286 7.35633333,3.33428571 6.545,3.51285714 C5.03766667,3.84428571 3.51866667,4.21464286 2.03033333,4.61357143 C1.90833333,4.64607143 1.78566667,4.66178571 1.66533333,4.66178571 Z" id="path-41"></path>
        <path d="M1.63166667,5.7444 C1.2,5.7444 0.771666667,5.5779 0.475333333,5.2551 C-0.053,4.6806 0.0363333333,3.8295 0.674333333,3.3543 C1.85533333,2.475 3.034,1.5585 4.178,0.6309 C4.79366667,0.132 5.74166667,0.1764 6.29666667,0.7299 C6.85133333,1.284 6.80166667,2.1378 6.18633333,2.6367 C5.01133333,3.5898 3.80033333,4.5309 2.58733333,5.4345 C2.30733333,5.6427 1.96833333,5.7444 1.63166667,5.7444 Z" id="path-43"></path>
        <path d="M0.981521739,3.17857143 C0.26173913,2.90607143 -0.133304348,2.00035714 0.0992173913,1.15571429 C0.33173913,0.310714286 1.10295652,-0.153214286 1.82334783,0.12 C3.20052174,0.641785714 4.58530435,1.20464286 5.93904348,1.79392857 C6.64817391,2.1025 7.00973913,3.02714286 6.74708696,3.85928571 C6.54226087,4.5075 6.01878261,4.90821429 5.46243478,4.90821429 C5.30447826,4.90821429 5.14347826,4.87607143 4.98673913,4.8075 C3.66952174,4.23464286 2.32217391,3.68642857 0.981521739,3.17857143 Z" id="path-45"></path>
        <path d="M4.42654545,0.357 C5.06863636,-0.126333333 5.96336364,0.0273333333 6.42472727,0.7 C6.88609091,1.37266667 6.73940909,2.31 6.09731818,2.79333333 C4.90540909,3.69066667 3.717,4.62533333 2.56518182,5.57166667 C2.30331818,5.787 1.99181818,5.89133333 1.68254545,5.89133333 C1.25777273,5.89133333 0.837454545,5.69433333 0.554909091,5.31733333 C0.0668181818,4.66533333 0.175636364,3.72233333 0.798,3.21133333 C1.981,2.239 3.20186364,1.27866667 4.42654545,0.357 Z" id="path-47"></path>
        <path d="M2.4633,5.487 C2.3208,5.6352 2.1519,5.7402 1.9716,5.8086 C1.401,5.2701 0.7995,4.764 0.1671,4.2972 C0.2142,4.0482 0.3303,3.8097 0.5193,3.6135 C1.5057,2.5899 2.5269,1.5738 3.5541,0.5937 C4.0935,0.0792 4.9485,0.099 5.463,0.639 C5.9775,1.1784 5.9574,2.0331 5.4177,2.5476 C4.4175,3.5016 3.4236,4.4907 2.4633,5.487 Z" id="path-49"></path>
        <path d="M0.817409091,2.7928125 C0.106590909,2.453125 -0.189636364,1.6115625 0.156227273,0.913125 C0.502409091,0.2146875 1.35927273,-0.07625 2.07040909,0.26375 C3.4265,0.911875 4.78863636,1.598125 6.11768182,2.30375 C6.81354545,2.673125 7.07254545,3.52625 6.69677273,4.2096875 C6.43745455,4.68 5.94459091,4.9475 5.43581818,4.9475 C5.20577273,4.9475 4.97286364,4.893125 4.75618182,4.778125 C3.46277273,4.0915625 2.13754545,3.4234375 0.817409091,2.7928125 Z" id="path-51"></path>
        <path d="M0.249666667,2.71642857 C0.545333333,1.84321429 0.855,0.967857143 1.172,0.0953571429 C2.04366667,0.616071429 2.95266667,1.07214286 3.893,1.46142857 C3.61,2.24428571 3.335,3.02964286 3.07,3.81214286 C2.849,4.46571429 2.27333333,4.87214286 1.65966667,4.87214286 C1.49,4.87214286 1.31733333,4.84107143 1.14866667,4.77535714 C0.369666667,4.47285714 -0.0326666667,3.55107143 0.249666667,2.71642857 Z" id="path-53"></path>
        <path d="M2.44763636,0.301 C3.34581818,0.391666667 3.99345455,1.133 3.89418182,1.95633333 C3.71054545,3.48066667 3.56,5.03266667 3.44654545,6.56833333 C3.38836364,7.36033333 2.66909091,7.967 1.81563636,7.967 C1.77854545,7.967 1.74109091,7.966 1.70363636,7.96333333 C0.801818182,7.90766667 0.120363636,7.19233333 0.181454545,6.366 C0.297818182,4.78766667 0.452727273,3.19333333 0.641454545,1.627 C0.740363636,0.803666667 1.548,0.210333333 2.44763636,0.301 Z" id="path-55"></path>
        <path d="M6.92713636,0.4465 C5.52777273,0.691 4.10709091,0.7885 2.67209091,0.7265 C1.83559091,0.6905 1.00959091,0.5895 0.191863636,0.4465 L6.92713636,0.4465 Z" id="path-57"></path>
        <path d="M16.6850521,5 C17.8577315,4.8804374 18.7736102,3.85664885 18.7736102,2.61166667 C18.7736102,1.286 17.7356949,0.211666667 16.4549661,0.211666667 L2.44005085,0.211666667 C1.15932203,0.211666667 0.121084746,1.286 0.121084746,2.61166667 C0.121084746,3.85664885 1.03724755,4.8804374 2.2099614,5 L16.6850521,5 L16.6850521,5 Z" id="path-59"></path>
        <path d="M27.7855167,5 C26.5937255,4.87040296 25.6651294,3.85220433 25.6651294,2.61166667 L25.6651294,0.211666667 L2.57962353,0.211666667 C1.26988235,0.211666667 0.207858824,1.286 0.207858824,2.61166667 C0.207858824,3.85664885 1.14501111,4.8804374 2.34431904,5 L27.7855167,5 L27.7855167,5 Z" id="path-61"></path>
        <path d="M30.6481308,5 C31.8145866,4.8804374 32.726068,3.85664885 32.726068,2.61166667 C32.726068,1.286 31.6931359,0.211666667 30.4192718,0.211666667 L0.120786408,0.211666667 L0.120786408,5 L30.6481308,5 L30.6481308,5 Z" id="path-63"></path>
        <path d="M8.67632157,5 C9.82078612,4.8804374 10.7146286,3.85664885 10.7146286,2.61166667 C10.7146286,1.286 9.70168571,0.211666667 8.45177143,0.211666667 L2.33797143,0.211666667 C1.08805714,0.211666667 0.0751142857,1.286 0.0751142857,2.61166667 C0.0751142857,3.85664885 0.968956738,4.8804374 2.11342129,5 L8.67632157,5 L8.67632157,5 Z" id="path-65"></path>
        <path d="M6.84840132,5 C5.74728983,4.87040296 4.88934783,3.85220433 4.88934783,2.61166667 L4.88934783,0.211666667 L1.97430435,0.211666667 L1.97430435,2.61166667 C1.97430435,3.85220433 1.11608234,4.87040296 0.0149479848,5 L6.84840132,5 L6.84840132,5 Z" id="path-67"></path>
        <path d="M5.99541176,3.08188235 C5.99541176,4.64117647 4.73152941,5.90541176 3.17188235,5.90541176 C1.61258824,5.90541176 0.348352941,4.64117647 0.348352941,3.08188235 C0.348352941,1.52223529 1.61258824,0.258352941 3.17188235,0.258352941 C4.73152941,0.258352941 5.99541176,1.52223529 5.99541176,3.08188235 Z" id="path-69"></path>
        <path d="M5.69647059,3.08188235 C5.69647059,4.64117647 4.43258824,5.90541176 2.87294118,5.90541176 C1.31364706,5.90541176 0.0494117647,4.64117647 0.0494117647,3.08188235 C0.0494117647,1.52223529 1.31364706,0.258352941 2.87294118,0.258352941 C4.43258824,0.258352941 5.69647059,1.52223529 5.69647059,3.08188235 Z" id="path-71"></path>
        <path d="M8.08783673,0.195206897 C12.4359184,0.195206897 15.972898,3.55748276 15.972898,7.69065517 C15.972898,8.30948276 15.445551,8.81037931 14.795102,8.81037931 C14.1443265,8.81037931 13.6169796,8.30948276 13.6169796,7.69065517 C13.6169796,4.79203448 11.1366531,2.43465517 8.08783673,2.43465517 C5.03869388,2.43465517 2.55804082,4.79203448 2.55804082,7.69065517 C2.55804082,8.30948276 2.03069388,8.81037931 1.3802449,8.81037931 C0.729469388,8.81037931 0.202122449,8.30948276 0.202122449,7.69065517 C0.202122449,3.55748276 3.7397551,0.195206897 8.08783673,0.195206897 Z" id="path-73"></path>
        <path d="M1.96276923,4.76678571 C0.908923077,4.76678571 0.0547692308,3.775 0.0547692308,2.55214286 C0.0547692308,1.32892857 0.908923077,0.3375 1.96276923,0.3375 C3.01661538,0.3375 3.87076923,1.32892857 3.87076923,2.55214286 C3.87076923,3.775 3.01661538,4.76678571 1.96276923,4.76678571 Z" id="path-75"></path>
        <path d="M2.55642857,4.76678571 C1.33321429,4.76678571 0.341785714,3.775 0.341785714,2.55214286 C0.341785714,1.32892857 1.33321429,0.3375 2.55642857,0.3375 C3.77928571,0.3375 4.77107143,1.32892857 4.77107143,2.55214286 C4.77107143,3.775 3.77928571,4.76678571 2.55642857,4.76678571 Z" id="path-77"></path>
        <path d="M8.51266667,2.71725 L1.45833333,2.71725 C0.794333333,2.71725 0.256,2.112 0.256,1.36425 C0.256,0.6165 0.794333333,0.01125 1.45833333,0.01125 L8.51266667,0.01125 C9.17666667,0.01125 9.71533333,0.6165 9.71533333,1.36425 C9.71533333,2.112 9.17666667,2.71725 8.51266667,2.71725 Z" id="path-79"></path>
        <path d="M8.92862069,1.36425 C8.92862069,2.112 8.42741379,2.71725 7.80889655,2.71725 L1.24075862,2.71725 C0.622551724,2.71725 0.121034483,2.112 0.121034483,1.36425 C0.121034483,0.6165 0.622551724,0.01125 1.24075862,0.01125 L7.80889655,0.01125 C8.42741379,0.01125 8.92862069,0.6165 8.92862069,1.36425 Z" id="path-81"></path>
        <path d="M77.2780746,62.1028881 C77.1797127,64.3027525 76.8765112,66.4622644 76.3902201,68.5658034 C77.8692201,68.1219254 78.9573694,66.7610034 78.9573694,65.1361627 C78.9573694,63.8578983 78.283444,62.7407186 77.2780746,62.1028881 Z M4.83791418,65.1361627 C4.83791418,66.8143729 5.99585821,68.2166237 7.54952239,68.6107119 C7.03174254,66.4974102 6.69283209,64.3118644 6.55486567,62.0687186 C5.50924254,62.7052475 4.83791418,63.8471593 4.83791418,65.1361627 Z M23.1303134,37.5649627 C20.2141903,37.5649627 17.8414925,39.9431593 17.8414925,42.8667661 C17.8414925,43.005722 17.8762276,43.1391458 17.8869403,43.2771254 C18.2927239,44.8069424 18.5095746,46.3862237 18.5095746,47.9860068 C18.5095746,53.7586983 15.8317276,59.1044339 11.28825,62.5581559 C12.5692276,77.5263458 24.0032351,89.4632136 38.5017201,91.0838237 C39.3360112,91.1768949 40.1787425,91.2426305 41.0321866,91.266061 C42.4962537,91.3064136 43.9457127,91.2429559 45.3734216,91.0838237 C52.1230634,90.3301424 58.3792724,87.3795254 63.3295075,82.5512136 C69.3295858,76.6991186 72.6336381,68.8567322 72.6336381,60.4663322 L72.6336381,40.6470508 C72.6336381,39.3502373 73.6825075,38.2987932 74.9761455,38.2987932 C76.2697836,38.2987932 77.3183284,39.3502373 77.3183284,40.6470508 L77.3183284,57.0861559 C80.9408396,57.9677288 83.6420597,61.237261 83.6420597,65.1361627 C83.6420597,69.7086915 79.93125,73.4279593 75.3705672,73.4279593 C75.2115,73.4279593 75.0563284,73.4113627 74.9063507,73.3810983 C73.0926604,78.0447458 70.2937276,82.3110508 66.5965522,85.9173966 C64.5316007,87.9317695 62.2647313,89.6542373 59.8491828,91.0838237 C59.7410821,91.1476068 59.6342799,91.2146441 59.5252052,91.2774508 C58.0978209,92.1017492 56.6171978,92.8186576 55.0950224,93.4317559 C52.0792388,94.6462373 48.8956231,95.4392949 45.6129963,95.7800136 L38.241694,95.7800136 C34.9597164,95.4357153 31.8153806,94.6299661 28.8651716,93.4317559 C27.3429963,92.8137763 25.8711381,92.0945898 24.4606343,91.2774508 C24.3528582,91.2149695 24.2489776,91.1472814 24.1418507,91.0838237 C17.3701343,87.0648407 12.0131418,80.8362305 9.05124627,73.3322847 C8.85062687,73.3882576 8.6431903,73.4279593 8.42471642,73.4279593 C3.86403358,73.4279593 0.152899254,69.7086915 0.152899254,65.1361627 C0.152899254,62.2353356 1.62475746,59.6475661 3.94129478,58.1594034 C1.67604851,54.7180475 0.408705224,50.6619661 0.408705224,46.4805966 C0.408705224,38.7426712 4.61489552,31.6178441 11.3856381,27.8858847 C11.3999216,27.8777492 11.4142052,27.8709153 11.4288134,27.8631051 C11.829403,27.6346576 12.1371493,27.3219254 12.3202388,26.9561492 C19.0984478,10.7266169 34.9055037,0.181911864 52.5512463,0.181911864 C54.116597,0.181911864 55.6897388,0.265545763 57.226847,0.430535593 C58.5130187,0.568189831 59.4440485,1.72507119 59.3067313,3.01505085 C59.1694142,4.30372881 58.021209,5.24029831 56.7282201,5.09938983 C55.356347,4.95262373 53.9507127,4.87810169 52.5512463,4.87810169 C36.7990522,4.87810169 22.6881716,14.2913085 16.6023918,28.8605288 C16.5822649,28.9086915 16.5605149,28.9568542 16.5371418,29.0037153 C15.891459,30.2923932 14.9049179,31.3060881 13.6547799,31.9963119 C13.6359515,32.0054237 13.6177724,32.0158373 13.598944,32.0259254 C8.33706716,34.9612475 5.09339552,40.4853153 5.09339552,46.4805966 C5.09339552,50.6980881 6.73568284,54.7551458 9.60830597,57.8063186 C12.2708955,55.2637831 13.8248843,51.7544136 13.8248843,47.9860068 C13.8248843,47.1939254 13.7489216,46.4103051 13.6151754,45.6387254 C13.5246045,45.4639729 13.4476679,45.2794576 13.4022201,45.0783458 C13.3100261,44.6712407 13.2506194,44.256 13.2103657,43.8378305 C13.1662164,43.6041763 13.1467388,43.3701966 13.1720597,43.1430508 C13.1694627,43.0506305 13.1568022,42.9591864 13.1568022,42.8667661 C13.1568022,37.3540881 17.6311343,32.8687729 23.1303134,32.8687729 C24.1327612,32.8687729 25.104694,33.0292068 26.042541,33.3172068 C26.0532537,33.3198102 26.0633172,33.3233898 26.0740299,33.3263186 C26.5713582,33.4808949 27.062194,33.6605288 27.5364739,33.8948339 C27.6806082,33.9664271 27.8143545,34.0507119 27.9367388,34.1457356 C33.468056,36.6296949 39.3668507,37.9034034 45.5042463,37.9034034 C60.1046642,37.9034034 73.8454701,30.3568271 81.760847,18.0990915 C77.3540373,13.0930983 71.7639627,9.30256271 65.5006119,7.08740339 C64.2803396,6.65621695 63.6405,5.31612203 64.0706306,4.09285424 C64.5017351,2.86926102 65.8404963,2.22492203 67.0584963,2.65936271 C74.6557388,5.34475932 81.3673993,10.0995254 86.4679366,16.4065627 C87.0853769,17.1703322 87.1626381,18.2386983 86.6623881,19.0838237 C78.0727612,33.5889356 62.3017388,42.5995932 45.5042463,42.5995932 C38.1800149,42.5995932 31.1563881,40.9770305 24.6203507,37.7859254 C24.1402276,37.6446915 23.6432239,37.5649627 23.1303134,37.5649627 Z" id="path-83"></path>
        <path d="M10.0136508,15.2501587 C12.8898413,15.2501587 15.2301587,12.9101587 15.2301587,10.0333333 C15.2301587,9.38253968 15.1050794,8.76126984 14.8860317,8.18634921 C14.1377778,6.22095238 12.2387302,4.81777778 10.0136508,4.81777778 C7.78857143,4.81777778 5.88952381,6.22063492 5.14126984,8.18603175 C4.92222222,8.76126984 4.7968254,9.38222222 4.7968254,10.0333333 C4.7968254,12.9101587 7.13746032,15.2501587 10.0136508,15.2501587 Z M10.0136508,0.236507937 C15.4165079,0.236507937 19.811746,4.63111111 19.811746,10.0333333 C19.811746,12.7971429 18.6596825,15.2955556 16.8126984,17.0784127 C15.0492063,18.7809524 12.6526984,19.8314286 10.0136508,19.8314286 C7.37460317,19.8314286 4.97777778,18.7809524 3.21428571,17.0780952 C1.36761905,15.2952381 0.215555556,12.7968254 0.215555556,10.0333333 C0.215555556,4.63111111 4.61079365,0.236507937 10.0136508,0.236507937 Z" id="path-85"></path>
        <path d="M2.41975648,35 C1.22848429,34.8740029 0.300292683,33.8840875 0.300292683,32.6780093 L0.300292683,28.4008796 C0.300292683,24.9115741 1.70067073,21.7401852 3.97426829,19.3955093 C4.55509756,18.7962963 5.19289024,18.2518519 5.87941463,17.7696296 C8.04962195,16.2451852 10.701878,15.3445833 13.5651951,15.3445833 C14.9774268,15.3445833 16.3373049,15.5646296 17.6148659,15.96875 C18.1005366,11.0408796 19.2700976,6.2312963 21.1133415,1.61453704 C21.5930854,0.412222222 22.9697561,-0.181805556 24.1936463,0.293287037 C25.4152317,0.766111111 26.0161463,2.12236111 25.5357439,3.32467593 C23.5976707,8.17930556 22.4768415,13.2685648 22.1860976,18.4893981 C25.0263659,20.8859259 26.8310854,24.4390741 26.8310854,28.4008796 L26.8310854,30.3394907 L23.174561,30.3394907 C23.1732439,30.3411111 23.1719268,30.3430556 23.1706098,30.3446759 L26.8310854,30.3446759 L26.8310854,32.6780093 C26.8310854,33.8840875 25.9025908,34.8740029 24.7112939,35 L2.41975648,35 L2.41975648,35 Z M22.0790854,30.3394907 L22.0790854,28.4008796 C22.0790854,25.12125 20.1541829,22.2778241 17.3590244,20.9024537 C16.2158049,20.3398611 14.9280366,20.0212963 13.5651951,20.0212963 C8.87081707,20.0212963 5.05196341,23.7799074 5.05196341,28.4008796 L5.05196341,30.3394907 L22.0790854,30.3394907 Z" id="path-87"></path>
        <path d="M122.798345,74 L122.798345,60.2038684 C122.798345,47.055886 118.152505,35.0263421 110.383113,25.6997456 L110.383113,15.0512105 C110.383113,6.91185965 103.778984,0.289833333 95.6609842,0.289833333 L75.2122342,0.289833333 C75.1044474,0.353447368 74.9979553,0.420307018 74.8891974,0.482947368 C73.4659579,1.3050614 71.9896342,2.02007018 70.4718789,2.63154386 C67.4648526,3.84280702 64.2904816,4.63376316 61.0173868,4.97357895 L95.6609842,4.97357895 C101.203429,4.97357895 105.712026,9.49374561 105.712026,15.0512105 L105.712026,61.6309649 L9.87107368,61.6309649 L9.87107368,15.0512105 C9.87107368,9.49374561 14.3796711,4.97357895 19.9221158,4.97357895 L53.6674895,4.97357895 C50.3950421,4.63019298 47.2598368,3.82657895 44.3181947,2.63154386 C42.8004395,2.01520175 41.3328553,1.29792105 39.9264474,0.482947368 C39.8189842,0.420631579 39.7154053,0.353122807 39.6085895,0.289833333 L19.9221158,0.289833333 C11.8041158,0.289833333 5.19998684,6.91185965 5.19998684,15.0512105 L5.19998684,26.4627895 C4.75492105,26.5984561 4.34546053,26.8665439 4.03828421,27.2628333 C2.71991842,28.9622368 1.49250789,30.7596579 0.387773684,32.6041404 C-0.275778947,33.7134912 0.0828631579,35.1519474 1.18856842,35.8176228 C1.56468947,36.0438421 1.97932895,36.1512719 2.38814211,36.1512719 C3.18116842,36.1512719 3.95509737,35.7465439 4.39304211,35.0146579 C4.65425526,34.5781228 4.92388421,34.1448333 5.19998684,33.715114 L5.19998684,69.3324825 L9.87107368,69.3324825 L9.87107368,66.3150351 L105.712026,66.3150351 L105.712026,69.3324825 L110.383113,69.3324825 L110.383113,33.6102807 C115.291461,41.2663596 118.127258,50.3933509 118.127258,60.2038684 L118.127258,69.3324825 L110.383113,69.3324825 L110.383113,69.3376754 L5.19998684,69.3376754 L5.19998684,71.6745175 C5.19998684,72.8824095 6.11243719,73.8738134 7.28350652,74 L122.798345,74 L122.798345,74 Z" id="path-89"></path>
    </defs>
    <g id="projects" stroke="none" stroke-width="1" fill="none" fill-rule="evenodd">
        <g id="Artboard-3" transform="translate(-299.000000, -3933.000000)">
            <g id="Page-1" transform="translate(299.000000, 3933.000000)">
                <g id="Group-3" transform="translate(0.000000, 136.000000)">
                    <mask id="mask-2" fill="white">
                        <use xlink:href="#path-1"></use>
                    </mask>
                    <g id="Clip-2"></g>
                    <polygon id="Fill-1" fill="#1164FA" mask="url(#mask-2)" points="-1.61538462 43.5456 43.5456 43.5456 43.5456 -1.61538462 -1.61538462 -1.61538462"></polygon>
                </g>
                <g id="Group-6" transform="translate(191.000000, 45.000000)">
                    <mask id="mask-4" fill="white">
                        <use xlink:href="#path-3"></use>
                    </mask>
                    <g id="Clip-5"></g>
                    <polygon id="Fill-4" fill="#1164FA" mask="url(#mask-4)" points="-1.61538462 43.5456 43.5456 43.5456 43.5456 -1.61538462 -1.61538462 -1.61538462"></polygon>
                </g>
                <g id="Group-9" transform="translate(208.000000, 136.000000)">
                    <mask id="mask-6" fill="white">
                        <use xlink:href="#path-5"></use>
                    </mask>
                    <g id="Clip-8"></g>
                    <polygon id="Fill-7" fill="#1164FA" mask="url(#mask-6)" points="-1.3619542 43.5456 43.4542901 43.5456 43.4542901 -1.61538462 -1.3619542 -1.61538462"></polygon>
                </g>
                <g id="Group-12" transform="translate(108.000000, 0.000000)">
                    <mask id="mask-8" fill="white">
                        <use xlink:href="#path-7"></use>
                    </mask>
                    <g id="Clip-11"></g>
                    <polygon id="Fill-10" fill="#1164FA" mask="url(#mask-8)" points="-1.3619542 43.5456 43.4542901 43.5456 43.4542901 -1.61538462 -1.3619542 -1.61538462"></polygon>
                </g>
                <g id="Group-15" transform="translate(11.000000, 52.000000)">
                    <mask id="mask-10" fill="white">
                        <use xlink:href="#path-9"></use>
                    </mask>
                    <g id="Clip-14"></g>
                    <polygon id="Fill-13" fill="#1164FA" mask="url(#mask-10)" points="-1.3619542 43.5456 43.4542901 43.5456 43.4542901 -1.61538462 -1.3619542 -1.61538462"></polygon>
                </g>
                <g id="Group-18" transform="translate(34.000000, 183.000000)">
                    <mask id="mask-12" fill="white">
                        <use xlink:href="#path-11"></use>
                    </mask>
                    <g id="Clip-17"></g>
                    <polygon id="Fill-16" fill="#1164FA" mask="url(#mask-12)" points="-1.62936667 8.56566667 7.38566667 8.56566667 7.38566667 -1.61496667 -1.62936667 -1.61496667"></polygon>
                </g>
                <g id="Group-21" transform="translate(212.000000, 181.000000)">
                    <mask id="mask-14" fill="white">
                        <use xlink:href="#path-13"></use>
                    </mask>
                    <g id="Clip-20"></g>
                    <polygon id="Fill-19" fill="#1164FA" mask="url(#mask-14)" points="-1.45033333 8.29277273 7.46046667 8.29277273 7.46046667 -1.50315455 -1.45033333 -1.50315455"></polygon>
                </g>
                <g id="Group-24" transform="translate(202.000000, 193.000000)">
                    <mask id="mask-16" fill="white">
                        <use xlink:href="#path-15"></use>
                    </mask>
                    <g id="Clip-23"></g>
                    <polygon id="Fill-22" fill="#1164FA" mask="url(#mask-16)" points="-1.23456 8.42433333 7.25064 8.42433333 7.25064 -1.44012333 -1.23456 -1.44012333"></polygon>
                </g>
                <g id="Group-27" transform="translate(195.000000, 44.000000)">
                    <mask id="mask-18" fill="white">
                        <use xlink:href="#path-17"></use>
                    </mask>
                    <g id="Clip-26"></g>
                    <polygon id="Fill-25" fill="#1164FA" mask="url(#mask-18)" points="-1.32132 7.3671 7.46217 7.3671 7.46217 -1.22154 -1.32132 -1.22154"></polygon>
                </g>
                <g id="Group-30" transform="translate(28.000000, 175.000000)">
                    <mask id="mask-20" fill="white">
                        <use xlink:href="#path-19"></use>
                    </mask>
                    <g id="Clip-29"></g>
                    <polygon id="Fill-28" fill="#1164FA" mask="url(#mask-20)" points="-1.3005 4.702125 4.37898 4.702125 4.37898 -1.726875 -1.3005 -1.726875"></polygon>
                </g>
                <g id="Group-33" transform="translate(223.000000, 85.000000)">
                    <mask id="mask-22" fill="white">
                        <use xlink:href="#path-21"></use>
                    </mask>
                    <g id="Clip-32"></g>
                    <polygon id="Fill-31" fill="#1164FA" mask="url(#mask-22)" points="-1.3464 4.5585 4.29603 4.5585 4.29603 -1.738875 -1.3464 -1.738875"></polygon>
                </g>
                <g id="Group-36" transform="translate(230.000000, 109.000000)">
                    <mask id="mask-24" fill="white">
                        <use xlink:href="#path-23"></use>
                    </mask>
                    <g id="Clip-35"></g>
                    <polygon id="Fill-34" fill="#1164FA" mask="url(#mask-24)" points="-1.53323333 9.59666667 5.35896667 9.59666667 5.35896667 -1.397 -1.53323333 -1.397"></polygon>
                </g>
                <g id="Group-39" transform="translate(231.000000, 123.000000)">
                    <mask id="mask-26" fill="white">
                        <use xlink:href="#path-25"></use>
                    </mask>
                    <g id="Clip-38"></g>
                    <polygon id="Fill-37" fill="#1164FA" mask="url(#mask-26)" points="-1.38327 9.50944 4.4049 9.50944 4.4049 -1.30464 -1.38327 -1.30464"></polygon>
                </g>
                <g id="Group-42" transform="translate(18.000000, 97.000000)">
                    <mask id="mask-28" fill="white">
                        <use xlink:href="#path-27"></use>
                    </mask>
                    <g id="Clip-41"></g>
                    <polygon id="Fill-40" fill="#1164FA" mask="url(#mask-28)" points="-1.49538571 9.36866667 6.43093214 9.36866667 6.43093214 -1.5371 -1.49538571 -1.5371"></polygon>
                </g>
                <g id="Group-45" transform="translate(43.000000, 195.000000)">
                    <mask id="mask-30" fill="white">
                        <use xlink:href="#path-29"></use>
                    </mask>
                    <g id="Clip-44"></g>
                    <polygon id="Fill-43" fill="#1164FA" mask="url(#mask-30)" points="-1.4688 7.4547 7.53347368 7.4547 7.53347368 -1.273464 -1.4688 -1.273464"></polygon>
                </g>
                <g id="Group-48" transform="translate(226.000000, 94.000000)">
                    <mask id="mask-32" fill="white">
                        <use xlink:href="#path-31"></use>
                    </mask>
                    <g id="Clip-47"></g>
                    <polygon id="Fill-46" fill="#1164FA" mask="url(#mask-32)" points="-1.52214286 9.40333333 6.55425 9.40333333 6.55425 -1.46763333 -1.52214286 -1.46763333"></polygon>
                </g>
                <g id="Group-51" transform="translate(70.000000, 29.000000)">
                    <mask id="mask-34" fill="white">
                        <use xlink:href="#path-33"></use>
                    </mask>
                    <g id="Clip-50"></g>
                    <polygon id="Fill-49" fill="#1164FA" mask="url(#mask-34)" points="-1.57407727 7.67364706 8.38743182 7.67364706 8.38743182 -1.43188235 -1.57407727 -1.43188235"></polygon>
                </g>
                <g id="Group-54" transform="translate(83.000000, 23.000000)">
                    <mask id="mask-36" fill="white">
                        <use xlink:href="#path-35"></use>
                    </mask>
                    <g id="Clip-53"></g>
                    <polygon id="Fill-52" fill="#1164FA" mask="url(#mask-36)" points="-1.3558087 6.46566667 8.43207826 6.46566667 8.43207826 -1.541 -1.3558087 -1.541"></polygon>
                </g>
                <g id="Group-57" transform="translate(183.000000, 35.000000)">
                    <mask id="mask-38" fill="white">
                        <use xlink:href="#path-37"></use>
                    </mask>
                    <g id="Clip-56"></g>
                    <polygon id="Fill-55" fill="#1164FA" mask="url(#mask-38)" points="-1.6268 7.53633333 8.54716667 7.53633333 8.54716667 -1.5035 -1.6268 -1.5035"></polygon>
                </g>
                <g id="Group-60" transform="translate(16.000000, 127.000000)">
                    <mask id="mask-40" fill="white">
                        <use xlink:href="#path-39"></use>
                    </mask>
                    <g id="Clip-59"></g>
                    <polygon id="Fill-58" fill="#1164FA" mask="url(#mask-40)" points="-1.50828 9.379 5.65130909 9.379 5.65130909 -1.64313333 -1.50828 -1.64313333"></polygon>
                </g>
                <g id="Group-63" transform="translate(97.000000, 18.000000)">
                    <mask id="mask-42" fill="white">
                        <use xlink:href="#path-41"></use>
                    </mask>
                    <g id="Clip-62"></g>
                    <polygon id="Fill-61" fill="#1164FA" mask="url(#mask-42)" points="-1.50053333 6.4475 9.4103 6.4475 9.4103 -1.45453571 -1.50053333 -1.45453571"></polygon>
                </g>
                <g id="Group-66" transform="translate(192.000000, 203.000000)">
                    <mask id="mask-44" fill="white">
                        <use xlink:href="#path-43"></use>
                    </mask>
                    <g id="Clip-65"></g>
                    <polygon id="Fill-64" fill="#1164FA" mask="url(#mask-44)" points="-1.53586667 7.2444 8.34896667 7.2444 8.34896667 -1.21608 -1.53586667 -1.21608"></polygon>
                </g>
                <g id="Group-69" transform="translate(156.000000, 22.000000)">
                    <mask id="mask-46" fill="white">
                        <use xlink:href="#path-45"></use>
                    </mask>
                    <g id="Clip-68"></g>
                    <polygon id="Fill-67" fill="#1164FA" mask="url(#mask-46)" points="-1.48920435 6.69392857 8.3545 6.69392857 8.3545 -1.74410714 -1.48920435 -1.74410714"></polygon>
                </g>
                <g id="Group-72" transform="translate(57.000000, 37.000000)">
                    <mask id="mask-48" fill="white">
                        <use xlink:href="#path-47"></use>
                    </mask>
                    <g id="Clip-71"></g>
                    <polygon id="Fill-70" fill="#1164FA" mask="url(#mask-48)" points="-1.34129545 7.558 8.28469091 7.558 8.28469091 -1.59153333 -1.34129545 -1.59153333"></polygon>
                </g>
                <g id="Group-75" transform="translate(46.000000, 46.000000)">
                    <mask id="mask-50" fill="white">
                        <use xlink:href="#path-49"></use>
                    </mask>
                    <g id="Clip-74"></g>
                    <polygon id="Fill-73" fill="#1164FA" mask="url(#mask-50)" points="-1.3329 7.3086 7.33605 7.3086 7.33605 -1.27947 -1.3329 -1.27947"></polygon>
                </g>
                <g id="Group-78" transform="translate(170.000000, 27.000000)">
                    <mask id="mask-52" fill="white">
                        <use xlink:href="#path-51"></use>
                    </mask>
                    <g id="Clip-77"></g>
                    <polygon id="Fill-76" fill="#1164FA" mask="url(#mask-52)" points="-1.5792 6.51 8.46004091 6.51 8.46004091 -1.440875 -1.5792 -1.440875"></polygon>
                </g>
                <g id="Group-81" transform="translate(22.000000, 86.000000)">
                    <mask id="mask-54" fill="white">
                        <use xlink:href="#path-53"></use>
                    </mask>
                    <g id="Clip-80"></g>
                    <polygon id="Fill-79" fill="#1164FA" mask="url(#mask-54)" points="-1.50722667 6.65785714 5.55966667 6.65785714 5.55966667 -1.69035714 -1.50722667 -1.69035714"></polygon>
                </g>
                <g id="Group-84" transform="translate(16.000000, 112.000000)">
                    <mask id="mask-56" fill="white">
                        <use xlink:href="#path-55"></use>
                    </mask>
                    <g id="Clip-83"></g>
                    <polygon id="Fill-82" fill="#1164FA" mask="url(#mask-56)" points="-1.64053455 9.63366667 5.72241091 9.63366667 5.72241091 -1.37483333 -1.64053455 -1.37483333"></polygon>
                </g>
                <g id="Group-87" transform="translate(121.000000, 143.000000)">
                    <mask id="mask-58" fill="white">
                        <use xlink:href="#path-57"></use>
                    </mask>
                    <g id="Clip-86"></g>
                    <polygon id="Fill-85" fill="#1164FA" mask="url(#mask-58)" points="-1.39904545 3.24465 8.51804545 3.24465 8.51804545 -2.0535 -1.39904545 -2.0535"></polygon>
                </g>
                <g id="Group-90" transform="translate(231.000000, 212.000000)">
                    <mask id="mask-60" fill="white">
                        <use xlink:href="#path-59"></use>
                    </mask>
                    <g id="Clip-89"></g>
                    <polygon id="Fill-88" fill="#1164FA" mask="url(#mask-60)" points="-1.48908475 6.67833333 20.3837797 6.67833333 20.3837797 -1.455 -1.48908475 -1.455"></polygon>
                </g>
                <g id="Group-93" transform="translate(18.000000, 212.000000)">
                    <mask id="mask-62" fill="white">
                        <use xlink:href="#path-61"></use>
                    </mask>
                    <g id="Clip-92"></g>
                    <polygon id="Fill-91" fill="#1164FA" mask="url(#mask-62)" points="-1.4392 6.67833333 29.5861176 6.67833333 29.5861176 -1.455 -1.4392 -1.455"></polygon>
                </g>
                <g id="Group-96" transform="translate(190.000000, 212.000000)">
                    <mask id="mask-64" fill="white">
                        <use xlink:href="#path-63"></use>
                    </mask>
                    <g id="Clip-95"></g>
                    <polygon id="Fill-94" fill="#1164FA" mask="url(#mask-64)" points="-1.48115534 6.67833333 34.3280097 6.67833333 34.3280097 -1.455 -1.48115534 -1.455"></polygon>
                </g>
                <g id="Group-99" transform="translate(0.000000, 212.000000)">
                    <mask id="mask-66" fill="white">
                        <use xlink:href="#path-65"></use>
                    </mask>
                    <g id="Clip-98"></g>
                    <polygon id="Fill-97" fill="#1164FA" mask="url(#mask-66)" points="-1.49631429 6.67833333 12.2860571 6.67833333 12.2860571 -1.455 -1.49631429 -1.455"></polygon>
                </g>
                <g id="Group-102" transform="translate(68.000000, 212.000000)">
                    <mask id="mask-68" fill="white">
                        <use xlink:href="#path-67"></use>
                    </mask>
                    <g id="Clip-101"></g>
                    <polygon id="Fill-100" fill="#1164FA" mask="url(#mask-68)" points="-1.64865217 6.67833333 8.512 6.67833333 8.512 -1.455 -1.64865217 -1.455"></polygon>
                </g>
                <g id="Group-105" transform="translate(131.000000, 112.000000)">
                    <mask id="mask-70" fill="white">
                        <use xlink:href="#path-69"></use>
                    </mask>
                    <g id="Clip-104"></g>
                    <polygon id="Fill-103" fill="#1164FA" mask="url(#mask-70)" points="-1.41635294 7.67011765 7.76011765 7.67011765 7.76011765 -1.50635294 -1.41635294 -1.50635294"></polygon>
                </g>
                <g id="Group-108" transform="translate(113.000000, 112.000000)">
                    <mask id="mask-72" fill="white">
                        <use xlink:href="#path-71"></use>
                    </mask>
                    <g id="Clip-107"></g>
                    <polygon id="Fill-106" fill="#1164FA" mask="url(#mask-72)" points="-1.71529412 7.67011765 7.46117647 7.67011765 7.46117647 -1.50635294 -1.71529412 -1.50635294"></polygon>
                </g>
                <g id="Group-111" transform="translate(117.000000, 122.000000)">
                    <mask id="mask-74" fill="white">
                        <use xlink:href="#path-73"></use>
                    </mask>
                    <g id="Clip-110"></g>
                    <polygon id="Fill-109" fill="#1164FA" mask="url(#mask-74)" points="-1.43053061 10.3621034 17.605551 10.3621034 17.605551 -1.35651724 -1.43053061 -1.35651724"></polygon>
                </g>
                <g id="Group-114" transform="translate(110.000000, 119.000000)">
                    <mask id="mask-76" fill="white">
                        <use xlink:href="#path-75"></use>
                    </mask>
                    <g id="Clip-113"></g>
                    <polygon id="Fill-112" fill="#1164FA" mask="url(#mask-76)" points="-1.48369231 6.5525 5.40923077 6.5525 5.40923077 -1.44821429 -1.48369231 -1.44821429"></polygon>
                </g>
                <g id="Group-117" transform="translate(135.000000, 119.000000)">
                    <mask id="mask-78" fill="white">
                        <use xlink:href="#path-77"></use>
                    </mask>
                    <g id="Clip-116"></g>
                    <polygon id="Fill-115" fill="#1164FA" mask="url(#mask-78)" points="-1.44392857 6.5525 6.55678571 6.5525 6.55678571 -1.44821429 -1.44392857 -1.44821429"></polygon>
                </g>
                <g id="Group-120" transform="translate(110.000000, 105.000000)">
                    <mask id="mask-80" fill="white">
                        <use xlink:href="#path-79"></use>
                    </mask>
                    <g id="Clip-119"></g>
                    <polygon id="Fill-118" fill="#1164FA" mask="url(#mask-80)" points="-1.41066667 4.59225 11.382 4.59225 11.382 -1.86375 -1.41066667 -1.86375"></polygon>
                </g>
                <g id="Group-123" transform="translate(131.000000, 105.000000)">
                    <mask id="mask-82" fill="white">
                        <use xlink:href="#path-81"></use>
                    </mask>
                    <g id="Clip-122"></g>
                    <polygon id="Fill-121" fill="#1164FA" mask="url(#mask-82)" points="-1.43068966 4.59225 10.4803448 4.59225 10.4803448 -1.86375 -1.43068966 -1.86375"></polygon>
                </g>
                <g id="Group-126" transform="translate(83.000000, 53.000000)">
                    <mask id="mask-84" fill="white">
                        <use xlink:href="#path-83"></use>
                    </mask>
                    <g id="Clip-125"></g>
                    <polygon id="Fill-124" fill="#1164FA" mask="url(#mask-84)" points="-1.47023507 97.4071322 88.6136228 97.4071322 88.6136228 -1.44520678 -1.47023507 -1.44520678"></polygon>
                </g>
                <g id="Group-129" transform="translate(115.000000, 166.000000)">
                    <mask id="mask-86" fill="white">
                        <use xlink:href="#path-85"></use>
                    </mask>
                    <g id="Clip-128"></g>
                    <polygon id="Fill-127" fill="#1164FA" mask="url(#mask-86)" points="-1.37174603 21.4187302 21.3990476 21.4187302 21.3990476 -1.35079365 -1.37174603 -1.35079365"></polygon>
                </g>
                <g id="Group-132" transform="translate(43.000000, 182.000000)">
                    <mask id="mask-88" fill="white">
                        <use xlink:href="#path-87"></use>
                    </mask>
                    <g id="Clip-131"></g>
                    <polygon id="Fill-130" fill="#1164FA" mask="url(#mask-88)" points="-1.34604878 36.631713 28.4774268 36.631713 28.4774268 -1.49087037 -1.34604878 -1.49087037"></polygon>
                </g>
                <g id="Group-135" transform="translate(68.000000, 143.000000)">
                    <mask id="mask-90" fill="white">
                        <use xlink:href="#path-89"></use>
                    </mask>
                    <g id="Clip-134"></g>
                    <polygon id="Fill-133" fill="#1164FA" mask="url(#mask-90)" points="-1.56378316 75.6341667 124.416766 75.6341667 124.416766 -1.33297368 -1.56378316 -1.33297368"></polygon>
                </g>
                <g id="Group-138" transform="translate(166.000000, 85.000000)" font-family="OpenSans-Semibold, Open Sans" fill="#1164FA" font-weight="500">
                    <text id="?" font-size="21.1702752">
                        <tspan x="0.174688974" y="23.1194253">?</tspan>
                    </text>
                    <text id="?" font-size="24.6333024">
                        <tspan x="6.82446068" y="27.0352488">?</tspan>
                    </text>
                </g>
            </g>
        </g>
    </g>
</svg>