<?xml version="1.0" encoding="UTF-8"?>
<svg width="251px" height="162px" viewBox="0 0 251 162" version="1.1" xmlns="http://www.w3.org/2000/svg" xmlns:xlink="http://www.w3.org/1999/xlink">
    <!-- Generator: Sketch 46.2 (44496) - http://www.bohemiancoding.com/sketch -->
    <title>research-2</title>
    <desc>Created with Sketch.</desc>
    <defs>
        <path d="M4.942,2.94532 C4.942,4.46548 3.84332143,5.69796 2.4875,5.69796 C1.132,5.69796 0.033,4.46548 0.033,2.94532 C0.033,1.42484 1.132,0.19272 2.4875,0.19272 C3.84332143,0.19272 4.942,1.42484 4.942,2.94532 Z" id="path-1"></path>
        <path d="M4.95026786,2.94532 C4.95026786,4.46548 3.85157143,5.69796 2.49576429,5.69796 C1.14026071,5.69796 0.0412571429,4.46548 0.0412571429,2.94532 C0.0412571429,1.42484 1.14026071,0.19272 2.49576429,0.19272 C3.85157143,0.19272 4.95026786,1.42484 4.95026786,2.94532 Z" id="path-3"></path>
        <path d="M7.578,0.330984 C11.5684884,0.330984 14.8146279,3.685932 14.8146279,7.810128 C14.8146279,8.4276 14.3306512,8.927424 13.733686,8.927424 C13.136407,8.927424 12.6524302,8.4276 12.6524302,7.810128 C12.6524302,4.917816 10.376093,2.56554 7.578,2.56554 C4.77959302,2.56554 2.50294186,4.917816 2.50294186,7.810128 C2.50294186,8.4276 2.01896512,8.927424 1.42200349,8.927424 C0.824745349,8.927424 0.340765116,8.4276 0.340765116,7.810128 C0.340765116,3.685932 3.58747674,0.330984 7.578,0.330984 Z" id="path-5"></path>
        <path d="M2.39317083,4.69058333 C1.16719583,4.69058333 0.173529167,3.69525 0.173529167,2.46804167 C0.173529167,1.2405 1.16719583,0.245541667 2.39317083,0.245541667 C3.61914583,0.245541667 4.6128125,1.2405 4.6128125,2.46804167 C4.6128125,3.69525 3.61914583,4.69058333 2.39317083,4.69058333 Z" id="path-7"></path>
        <path d="M2.376125,4.69058333 C1.150125,4.69058333 0.156458333,3.69525 0.156458333,2.46804167 C0.156458333,1.2405 1.150125,0.245541667 2.376125,0.245541667 C3.60175,0.245541667 4.59575,1.2405 4.59575,2.46804167 C4.59575,3.69525 3.60175,4.69058333 2.376125,4.69058333 Z" id="path-9"></path>
        <path d="M7.7344236,2.6853 L1.1893932,2.6853 C0.5733288,2.6853 0.0738648,2.1646875 0.0738648,1.52145 C0.0738648,0.87825 0.5733288,0.3576 1.1893932,0.3576 L7.7344236,0.3576 C8.3504844,0.3576 8.8502616,0.87825 8.8502616,1.52145 C8.8502616,2.1646875 8.3504844,2.6853 7.7344236,2.6853 Z" id="path-11"></path>
        <path d="M8.73761538,1.52145 C8.73761538,2.1646875 8.25736154,2.6853 7.66467692,2.6853 L1.37108077,2.6853 C0.778707692,2.6853 0.298176923,2.1646875 0.298176923,1.52145 C0.298176923,0.87825 0.778707692,0.3576 1.37108077,0.3576 L7.66467692,0.3576 C8.25736154,0.3576 8.73761538,0.87825 8.73761538,1.52145 Z" id="path-13"></path>
        <path d="M74.4022182,59.5658709 C74.3075636,61.6720913 74.0157818,63.7396283 73.5478182,65.7535953 C74.9710909,65.3286205 76.0182182,64.0256614 76.0182182,62.4699921 C76.0182182,61.2461748 75.3696727,60.176548 74.4022182,59.5658709 Z M4.69233455,62.4699921 C4.69233455,64.0767323 5.80663636,65.4192803 7.30174182,65.796589 C6.80347636,63.7732772 6.47734182,61.6807843 6.34457455,59.5331638 C5.33836,60.1426094 4.69233455,61.2358882 4.69233455,62.4699921 Z M22.2952909,36.0728378 C19.4890764,36.0728378 17.2058036,38.3497654 17.2058036,41.1488835 C17.2058036,41.2819213 17.2392327,41.4096709 17.2495382,41.5417669 C17.6400291,43.0064504 17.8487055,44.518474 17.8487055,46.0501291 C17.8487055,51.577011 15.2717891,56.6951087 10.8995564,60.0017843 C12.1322545,74.3325591 23.1353091,85.7611323 37.0873455,87.3127449 C37.8901818,87.4018472 38.7011636,87.4647984 39.5224364,87.4872189 C40.9313091,87.5258661 42.3261455,87.4650882 43.7000364,87.3127449 C50.1953091,86.5911606 56.2157091,83.7661811 60.9793818,79.1434709 C66.7533091,73.5405622 69.9328364,66.0321307 69.9328364,57.9990094 L69.9328364,39.0236835 C69.9328364,37.7820819 70.9421455,36.7754425 72.1870545,36.7754425 C73.4319273,36.7754425 74.4409455,37.7820819 74.4409455,39.0236835 L74.4409455,54.7627827 C77.9269091,55.6068283 80.5263273,58.7371102 80.5263273,62.4699921 C80.5263273,66.8478157 76.9553818,70.4087228 72.5665818,70.4087228 C72.4135273,70.4087228 72.2642182,70.392822 72.1198909,70.3638457 C70.3745455,74.8288882 67.6810909,78.9135433 64.1232727,82.3663323 C62.1361455,84.2949276 59.9547273,85.9440457 57.6302182,87.3127449 C57.5261818,87.3738126 57.4234182,87.4379953 57.3184364,87.4981213 C55.9448727,88.2873291 54.5200364,88.9737071 53.0552364,89.5606961 C50.1531273,90.7234457 47.0894909,91.4827354 43.9305818,91.8089732 L36.8371273,91.8089732 C33.67884,91.4793307 30.6530145,90.7078709 27.814,89.5606961 C26.3491964,88.9690346 24.9328109,88.2804835 23.5754691,87.4981213 C23.4717564,87.4383213 23.3717891,87.3734866 23.2687018,87.3127449 C16.7522109,83.4648992 11.5971273,77.5015244 8.74686545,70.3171213 C8.55380727,70.3706913 8.35418909,70.4087228 8.14394909,70.4087228 C3.75516,70.4087228 0.183898727,66.8478157 0.183898727,62.4699921 C0.183898727,59.6926787 1.60028218,57.215126 3.82950909,55.7903213 C1.64964,52.495526 0.430063273,48.612148 0.430063273,44.6088441 C0.430063273,37.2004173 4.47772,30.3789795 10.9932727,26.8059386 C11.0070182,26.7981512 11.0207636,26.7915953 11.0348218,26.7841339 C11.4203127,26.5653984 11.7164582,26.266 11.8926473,25.9157843 C18.4153855,10.3773465 33.6266691,0.281650394 50.6073455,0.281650394 C52.1137091,0.281650394 53.6275273,0.361733858 55.1067273,0.519691339 C56.3444,0.651497638 57.2403636,1.75911969 57.1082182,2.99416535 C56.9760727,4.22794331 55.8711273,5.12465354 54.6268727,4.98973228 C53.3067273,4.84923307 51.9540727,4.77787874 50.6073455,4.77787874 C35.4488509,4.77787874 21.8698109,13.7902567 16.0134073,27.7390504 C15.9940364,27.7851953 15.9731091,27.8313039 15.9506145,27.8761449 C15.3292691,29.1099591 14.3799091,30.0804866 13.1768909,30.7413291 C13.1587709,30.7500583 13.1412764,30.7600189 13.12316,30.7696898 C8.05960364,33.58 4.93818545,38.8688409 4.93818545,44.6088441 C4.93818545,48.6467386 6.51857455,52.531022 9.28293091,55.4522756 C11.8451636,53.0180063 13.3405855,49.6580866 13.3405855,46.0501291 C13.3405855,45.2917811 13.2674836,44.5415465 13.1387782,43.8027937 C13.0516218,43.6354913 12.9775855,43.4588441 12.9338509,43.2662961 C12.8451309,42.8765276 12.7879636,42.4789717 12.7492255,42.0785906 C12.7067418,41.8548929 12.6879964,41.6308693 12.7123636,41.4134016 C12.7098655,41.324915 12.69768,41.2373701 12.69768,41.1488835 C12.69768,35.8709449 17.0033745,31.5766457 22.2952909,31.5766457 C23.2599527,31.5766457 24.1952545,31.7302205 25.0977527,32.0059669 C25.1080618,32.0084661 25.1177491,32.0119071 25.1280545,32.0146961 C25.60664,32.1626929 26.0789745,32.3346677 26.5353818,32.5590173 C26.6740836,32.6275465 26.8027891,32.7082457 26.92056,32.7992315 C32.2434,35.1773953 37.9198545,36.3968661 43.8259273,36.3968661 C57.8760727,36.3968661 71.0989818,29.1716425 78.7160364,17.4358835 C74.4753091,12.6430457 69.0959273,9.01393543 63.0686545,6.89308189 C61.8943636,6.48027717 61.2786545,5.19723937 61.6925455,4.02605039 C62.1074182,2.85457165 63.3957091,2.23766457 64.5678182,2.65362047 C71.8787273,5.22465827 78.3374182,9.77695591 83.2457091,15.8154157 C83.8398545,16.5466709 83.9142182,17.569537 83.4328364,18.3786661 C75.1669455,32.2661386 59.9903273,40.8930945 43.8259273,40.8930945 C36.7777818,40.8930945 30.0188582,39.3396346 23.7291673,36.2844016 C23.2671382,36.1491906 22.7888691,36.0728378 22.2952909,36.0728378 Z" id="path-15"></path>
        <path d="M116.713223,58.9306568 C116.713223,91.3716611 90.5902022,117.670784 58.3664824,117.670784 C26.140408,117.670784 0.0197052632,91.3716611 0.0197052632,58.9306568 C0.0197052632,26.4896889 26.140408,0.190548148 58.3664824,0.190548148 C90.5902022,0.190548148 116.713223,26.4896889 116.713223,58.9306568 Z" id="path-17"></path>
        <polygon id="path-19" points="0.207422222 60.8944971 25.800775 60.8944971 25.800775 0.350046154 0.207422222 0.350046154"></polygon>
        <polygon id="path-21" points="0.207422222 60.8944971 25.800775 60.8944971 25.800775 0.350046154 0.207422222 0.350046154"></polygon>
        <polygon id="path-23" points="0.101869444 20.8959628 25.6952222 20.8959628 25.6952222 0.229433898 0.101869444 0.229433898"></polygon>
        <polygon id="path-25" points="0.335219444 35.8926263 25.9285361 35.8926263 25.9285361 0.3438 0.335219444 0.3438"></polygon>
        <polygon id="path-27" points="110.960606 0.0484592233 110.960606 26.5862961 104.028475 19.7125583 54.6084814 68.7163641 36.429801 50.6907544 13.2424814 73.6828058 0.0724039216 60.5239534 38.0821775 22.8319456 56.2632157 40.8575553 90.8069598 6.60471553 84.1973814 0.0484592233"></polygon>
    </defs>
    <g id="projects" stroke="none" stroke-width="1" fill="none" fill-rule="evenodd">
        <g id="Artboard-3" transform="translate(-746.000000, -3645.000000)">
            <g id="Page-1" transform="translate(746.000000, 3645.000000)">
                <g id="Group-3" transform="translate(47.000000, 57.000000)">
                    <mask id="mask-2" fill="white">
                        <use xlink:href="#path-1"></use>
                    </mask>
                    <g id="Clip-2"></g>
                    <polygon id="Fill-1" fill="#1164FA" mask="url(#mask-2)" points="-3.80217857 9.99892 8.77716071 9.99892 8.77716071 -4.108264 -3.80217857 -4.108264"></polygon>
                </g>
                <g id="Group-6" transform="translate(29.000000, 57.000000)">
                    <mask id="mask-4" fill="white">
                        <use xlink:href="#path-3"></use>
                    </mask>
                    <g id="Clip-5"></g>
                    <polygon id="Fill-4" fill="#1164FA" mask="url(#mask-4)" points="-3.79390714 9.99892 8.78543214 9.99892 8.78543214 -4.108264 -3.79390714 -4.108264"></polygon>
                </g>
                <g id="Group-9" transform="translate(32.000000, 67.000000)">
                    <mask id="mask-6" fill="white">
                        <use xlink:href="#path-5"></use>
                    </mask>
                    <g id="Clip-8"></g>
                    <polygon id="Fill-7" fill="#1164FA" mask="url(#mask-6)" points="-3.4052093 12.798288 18.5605884 12.798288 18.5605884 -3.5398944 -3.4052093 -3.5398944"></polygon>
                </g>
                <g id="Group-12" transform="translate(26.000000, 64.000000)">
                    <mask id="mask-8" fill="white">
                        <use xlink:href="#path-7"></use>
                    </mask>
                    <g id="Clip-11"></g>
                    <polygon id="Fill-10" fill="#D6E4FC" mask="url(#mask-8)" points="-4.30082917 9.17075 9.08717083 9.17075 9.08717083 -4.23465833 -4.30082917 -4.23465833"></polygon>
                </g>
                <g id="Group-15" transform="translate(50.000000, 64.000000)">
                    <mask id="mask-10" fill="white">
                        <use xlink:href="#path-9"></use>
                    </mask>
                    <g id="Clip-14"></g>
                    <polygon id="Fill-13" fill="#D6E4FC" mask="url(#mask-10)" points="-4.317875 9.17075 9.070125 9.17075 9.070125 -4.23465833 -4.317875 -4.23465833"></polygon>
                </g>
                <g id="Group-18" transform="translate(25.000000, 50.000000)">
                    <mask id="mask-12" fill="white">
                        <use xlink:href="#path-11"></use>
                    </mask>
                    <g id="Clip-17"></g>
                    <polygon id="Fill-16" fill="#1164FA" mask="url(#mask-12)" points="-3.7919844 6.71745 12.7161072 6.71745 12.7161072 -3.6745575 -3.7919844 -3.6745575"></polygon>
                </g>
                <g id="Group-21" transform="translate(45.000000, 50.000000)">
                    <mask id="mask-14" fill="white">
                        <use xlink:href="#path-13"></use>
                    </mask>
                    <g id="Clip-20"></g>
                    <polygon id="Fill-19" fill="#1164FA" mask="url(#mask-14)" points="-3.41899615 6.71745 12.4547642 6.71745 12.4547642 -3.6745575 -3.41899615 -3.6745575"></polygon>
                </g>
                <g id="Group-24">
                    <mask id="mask-16" fill="white">
                        <use xlink:href="#path-15"></use>
                    </mask>
                    <g id="Clip-23"></g>
                    <polygon id="Fill-22" fill="#1164FA" mask="url(#mask-16)" points="-3.72099636 95.7035433 87.6534764 95.7035433 87.6534764 -3.61291969 -3.72099636 -3.61291969"></polygon>
                </g>
                <g id="Group-27" transform="translate(134.000000, 22.000000)">
                    <mask id="mask-18" fill="white">
                        <use xlink:href="#path-17"></use>
                    </mask>
                    <g id="Clip-26"></g>
                    <polygon id="Fill-25" fill="#F5FAFF" mask="url(#mask-18)" points="-3.87005573 121.586792 120.60302 121.586792 120.60302 -3.72545667 -3.87005573 -3.72545667"></polygon>
                </g>
                <g id="Group-32" transform="translate(104.000000, 38.000000)" stroke="#D6E4FC" stroke-width="6">
                    <path d="M60.5432183,0.247758308 L60.5432183,14.2811347 M53.5697196,7.26444653 L67.5167171,7.26444653 M11.7287273,28.3145112 L11.7287273,42.3478876 M4.75522857,35.3311994 L18.702226,35.3311994 M130.278206,40.0089915 L130.278206,54.042368 M123.304707,47.0256798 L137.251704,47.0256798" id="Stroke-28"></path>
                </g>
                <g id="Group-35" transform="translate(194.000000, 97.000000)">
                    <mask id="mask-20" fill="white">
                        <use xlink:href="#path-19"></use>
                    </mask>
                    <g id="Clip-34"></g>
                    <polygon id="Fill-33" fill="#FFFFFE" mask="url(#mask-20)" points="-3.67033333 64.775551 29.6785558 64.775551 29.6785558 -3.53098572 -3.67033333 -3.53098572"></polygon>
                </g>
                <g id="Group-38" transform="translate(194.000000, 97.000000)">
                    <mask id="mask-22" fill="white">
                        <use xlink:href="#path-21"></use>
                    </mask>
                    <g id="Clip-37"></g>
                    <polygon id="Fill-36" fill="#D6E4FC" mask="url(#mask-22)" points="-3.67033333 64.775551 29.6785558 64.775551 29.6785558 -3.53098572 -3.67033333 -3.53098572"></polygon>
                </g>
                <polygon id="Stroke-39" stroke="#1164FA" stroke-width="6" points="194 159 219 159 219 98 194 98"></polygon>
                <g id="Group-43" transform="translate(124.000000, 138.000000)">
                    <mask id="mask-24" fill="white">
                        <use xlink:href="#path-23"></use>
                    </mask>
                    <g id="Clip-42"></g>
                    <polygon id="Fill-41" fill="#E9EAE6" mask="url(#mask-24)" points="-3.77588611 24.7230982 29.5730031 24.7230982 29.5730031 -3.59770114 -3.77588611 -3.59770114"></polygon>
                </g>
                <polygon id="Stroke-44" stroke="#1164FA" stroke-width="6" points="124 159 149 159 149 138 124 138"></polygon>
                <g id="Group-48" transform="translate(160.000000, 123.000000)">
                    <mask id="mask-26" fill="white">
                        <use xlink:href="#path-25"></use>
                    </mask>
                    <g id="Clip-47"></g>
                    <polygon id="Fill-46" fill="#E9EAE6" mask="url(#mask-26)" points="-3.54257222 39.8424978 29.8063169 39.8424978 29.8063169 -3.60608584 -3.54257222 -3.60608584"></polygon>
                </g>
                <path d="M159.938776,158 L185.755102,158 L185.755102,123 L159.938776,123 L159.938776,158 Z M228,158 L113,158 L228,158 Z" id="Stroke-49" stroke="#1164FA" stroke-width="6"></path>
                <g id="Group-53" transform="translate(111.000000, 41.000000)">
                    <mask id="mask-28" fill="white">
                        <use xlink:href="#path-27"></use>
                    </mask>
                    <g id="Clip-52"></g>
                    <polygon id="Fill-51" fill="#D6E4FC" mask="url(#mask-28)" points="-3.82293431 77.5453184 114.855908 77.5453184 114.855908 -3.81408932 -3.82293431 -3.81408932"></polygon>
                </g>
                <polygon id="Stroke-54" stroke="#1164FA" stroke-width="6" points="222 41 195.209801 41 201.826051 47.5888018 167.247487 82.0117395 149.048119 63.8966103 111 101.775816 124.18337 115 147.394056 91.8937777 165.591084 110.008907 215.060892 60.7617474 222 67.6696252"></polygon>
            </g>
        </g>
    </g>
</svg>