<svg width="19" height="19" viewBox="0 0 19 19" fill="none" xmlns="http://www.w3.org/2000/svg">
<path d="M10.0078 16.1484L19.0312 7.14844L17.6016 5.67188L10.0078 13.2891L6.44531 9.72656L5.01562 11.1328L10.0078 16.1484ZM19.0312 2.10938C19.5938 2.10938 20.0703 2.3125 20.4609 2.71875C20.8516 3.125 21.0469 3.59375 21.0469 4.125V18.1406C21.0469 18.6719 20.8516 19.1406 20.4609 19.5469C20.0703 19.9531 19.5938 20.1562 19.0312 20.1562H5.01562C4.45312 20.1562 3.97656 19.9531 3.58594 19.5469C3.19531 19.1406 3 18.6719 3 18.1406V4.125C3 3.59375 3.19531 3.125 3.58594 2.71875C3.97656 2.3125 4.45312 2.10938 5.01562 2.10938H19.0312Z" transform="translate(-3 -2)" fill="#FDB92D"/>
</svg>
